<mxfile host="app.diagrams.net" agent="Mozilla/5.0 (Windows NT 10.0; Win64; x64) AppleWebKit/537.36 (KHTML, like Gecko) Chrome/139.0.0.0 Safari/537.36" version="28.1.1">
  <diagram name="Page-1" id="QBci4Ad2uPYSjfKlQZZ4">
    <mxGraphModel dx="1765" dy="722" grid="0" gridSize="10" guides="1" tooltips="1" connect="1" arrows="1" fold="1" page="0" pageScale="1" pageWidth="850" pageHeight="1100" math="0" shadow="0">
      <root>
        <mxCell id="0" />
        <mxCell id="1" parent="0" />
        <mxCell id="8j5CEaMQhX4lXEdDIJTh-382" value="FCT_APARTMENTS_TX" style="shape=table;startSize=30;container=1;collapsible=1;childLayout=tableLayout;fixedRows=1;rowLines=0;fontStyle=1;align=center;resizeLast=1;fontSize=15;" parent="1" vertex="1">
          <mxGeometry x="554" y="135" width="303" height="573" as="geometry" />
        </mxCell>
        <mxCell id="8j5CEaMQhX4lXEdDIJTh-383" value="" style="shape=partialRectangle;collapsible=0;dropTarget=0;pointerEvents=0;fillColor=none;points=[[0,0.5],[1,0.5]];portConstraint=eastwest;top=0;left=0;right=0;bottom=1;" parent="8j5CEaMQhX4lXEdDIJTh-382" vertex="1">
          <mxGeometry y="30" width="303" height="30" as="geometry" />
        </mxCell>
        <mxCell id="8j5CEaMQhX4lXEdDIJTh-384" value="PK" style="shape=partialRectangle;overflow=hidden;connectable=0;fillColor=none;top=0;left=0;bottom=0;right=0;fontStyle=1;" parent="8j5CEaMQhX4lXEdDIJTh-383" vertex="1">
          <mxGeometry width="30" height="30" as="geometry">
            <mxRectangle width="30" height="30" as="alternateBounds" />
          </mxGeometry>
        </mxCell>
        <mxCell id="8j5CEaMQhX4lXEdDIJTh-385" value="APARTMENT_SURR_ID" style="shape=partialRectangle;overflow=hidden;connectable=0;fillColor=none;top=0;left=0;bottom=0;right=0;align=left;spacingLeft=6;fontStyle=5;" parent="8j5CEaMQhX4lXEdDIJTh-383" vertex="1">
          <mxGeometry x="30" width="152.05889533547793" height="30" as="geometry">
            <mxRectangle width="152.05889533547793" height="30" as="alternateBounds" />
          </mxGeometry>
        </mxCell>
        <mxCell id="8j5CEaMQhX4lXEdDIJTh-386" value="BIGINT NOT NULL" style="shape=partialRectangle;overflow=hidden;connectable=0;fillColor=none;top=0;left=0;bottom=0;right=0;align=left;spacingLeft=6;fontStyle=5;" parent="8j5CEaMQhX4lXEdDIJTh-383" vertex="1">
          <mxGeometry x="182.05889533547793" width="120.94110466452207" height="30" as="geometry">
            <mxRectangle width="120.94110466452207" height="30" as="alternateBounds" />
          </mxGeometry>
        </mxCell>
        <mxCell id="8j5CEaMQhX4lXEdDIJTh-387" value="" style="shape=partialRectangle;collapsible=0;dropTarget=0;pointerEvents=0;fillColor=none;points=[[0,0.5],[1,0.5]];portConstraint=eastwest;top=0;left=0;right=0;bottom=0;" parent="8j5CEaMQhX4lXEdDIJTh-382" vertex="1">
          <mxGeometry y="60" width="303" height="30" as="geometry" />
        </mxCell>
        <mxCell id="8j5CEaMQhX4lXEdDIJTh-388" value="FK1" style="shape=partialRectangle;overflow=hidden;connectable=0;fillColor=none;top=0;left=0;bottom=0;right=0;fontStyle=1" parent="8j5CEaMQhX4lXEdDIJTh-387" vertex="1">
          <mxGeometry width="30" height="30" as="geometry">
            <mxRectangle width="30" height="30" as="alternateBounds" />
          </mxGeometry>
        </mxCell>
        <mxCell id="8j5CEaMQhX4lXEdDIJTh-389" value="CITY_SURR_ID" style="shape=partialRectangle;overflow=hidden;connectable=0;fillColor=none;top=0;left=0;bottom=0;right=0;align=left;spacingLeft=6;fontStyle=1" parent="8j5CEaMQhX4lXEdDIJTh-387" vertex="1">
          <mxGeometry x="30" width="152.05889533547793" height="30" as="geometry">
            <mxRectangle width="152.05889533547793" height="30" as="alternateBounds" />
          </mxGeometry>
        </mxCell>
        <mxCell id="8j5CEaMQhX4lXEdDIJTh-390" value="BIGINT" style="shape=partialRectangle;overflow=hidden;connectable=0;fillColor=none;top=0;left=0;bottom=0;right=0;align=left;spacingLeft=6;fontStyle=1" parent="8j5CEaMQhX4lXEdDIJTh-387" vertex="1">
          <mxGeometry x="182.05889533547793" width="120.94110466452207" height="30" as="geometry">
            <mxRectangle width="120.94110466452207" height="30" as="alternateBounds" />
          </mxGeometry>
        </mxCell>
        <mxCell id="8j5CEaMQhX4lXEdDIJTh-395" style="shape=partialRectangle;collapsible=0;dropTarget=0;pointerEvents=0;fillColor=none;points=[[0,0.5],[1,0.5]];portConstraint=eastwest;top=0;left=0;right=0;bottom=0;" parent="8j5CEaMQhX4lXEdDIJTh-382" vertex="1">
          <mxGeometry y="90" width="303" height="30" as="geometry" />
        </mxCell>
        <mxCell id="8j5CEaMQhX4lXEdDIJTh-396" value="FK2" style="shape=partialRectangle;overflow=hidden;connectable=0;fillColor=none;top=0;left=0;bottom=0;right=0;fontStyle=1" parent="8j5CEaMQhX4lXEdDIJTh-395" vertex="1">
          <mxGeometry width="30" height="30" as="geometry">
            <mxRectangle width="30" height="30" as="alternateBounds" />
          </mxGeometry>
        </mxCell>
        <mxCell id="8j5CEaMQhX4lXEdDIJTh-397" value="DISTRICT_SURR_ID" style="shape=partialRectangle;overflow=hidden;connectable=0;fillColor=none;top=0;left=0;bottom=0;right=0;align=left;spacingLeft=6;fontStyle=1" parent="8j5CEaMQhX4lXEdDIJTh-395" vertex="1">
          <mxGeometry x="30" width="152.05889533547793" height="30" as="geometry">
            <mxRectangle width="152.05889533547793" height="30" as="alternateBounds" />
          </mxGeometry>
        </mxCell>
        <mxCell id="8j5CEaMQhX4lXEdDIJTh-398" value="BIGINT" style="shape=partialRectangle;overflow=hidden;connectable=0;fillColor=none;top=0;left=0;bottom=0;right=0;align=left;spacingLeft=6;fontStyle=1" parent="8j5CEaMQhX4lXEdDIJTh-395" vertex="1">
          <mxGeometry x="182.05889533547793" width="120.94110466452207" height="30" as="geometry">
            <mxRectangle width="120.94110466452207" height="30" as="alternateBounds" />
          </mxGeometry>
        </mxCell>
        <mxCell id="8j5CEaMQhX4lXEdDIJTh-399" style="shape=partialRectangle;collapsible=0;dropTarget=0;pointerEvents=0;fillColor=none;points=[[0,0.5],[1,0.5]];portConstraint=eastwest;top=0;left=0;right=0;bottom=0;" parent="8j5CEaMQhX4lXEdDIJTh-382" vertex="1">
          <mxGeometry y="120" width="303" height="30" as="geometry" />
        </mxCell>
        <mxCell id="8j5CEaMQhX4lXEdDIJTh-400" value="FK3" style="shape=partialRectangle;overflow=hidden;connectable=0;fillColor=none;top=0;left=0;bottom=0;right=0;fontStyle=1" parent="8j5CEaMQhX4lXEdDIJTh-399" vertex="1">
          <mxGeometry width="30" height="30" as="geometry">
            <mxRectangle width="30" height="30" as="alternateBounds" />
          </mxGeometry>
        </mxCell>
        <mxCell id="8j5CEaMQhX4lXEdDIJTh-401" value="STREET_SURR_ID" style="shape=partialRectangle;overflow=hidden;connectable=0;fillColor=none;top=0;left=0;bottom=0;right=0;align=left;spacingLeft=6;fontStyle=1" parent="8j5CEaMQhX4lXEdDIJTh-399" vertex="1">
          <mxGeometry x="30" width="152.05889533547793" height="30" as="geometry">
            <mxRectangle width="152.05889533547793" height="30" as="alternateBounds" />
          </mxGeometry>
        </mxCell>
        <mxCell id="8j5CEaMQhX4lXEdDIJTh-402" value="BIGINT" style="shape=partialRectangle;overflow=hidden;connectable=0;fillColor=none;top=0;left=0;bottom=0;right=0;align=left;spacingLeft=6;fontStyle=1" parent="8j5CEaMQhX4lXEdDIJTh-399" vertex="1">
          <mxGeometry x="182.05889533547793" width="120.94110466452207" height="30" as="geometry">
            <mxRectangle width="120.94110466452207" height="30" as="alternateBounds" />
          </mxGeometry>
        </mxCell>
        <mxCell id="8j5CEaMQhX4lXEdDIJTh-403" style="shape=partialRectangle;collapsible=0;dropTarget=0;pointerEvents=0;fillColor=none;points=[[0,0.5],[1,0.5]];portConstraint=eastwest;top=0;left=0;right=0;bottom=0;" parent="8j5CEaMQhX4lXEdDIJTh-382" vertex="1">
          <mxGeometry y="150" width="303" height="30" as="geometry" />
        </mxCell>
        <mxCell id="8j5CEaMQhX4lXEdDIJTh-404" value="FK4" style="shape=partialRectangle;overflow=hidden;connectable=0;fillColor=none;top=0;left=0;bottom=0;right=0;fontStyle=1" parent="8j5CEaMQhX4lXEdDIJTh-403" vertex="1">
          <mxGeometry width="30" height="30" as="geometry">
            <mxRectangle width="30" height="30" as="alternateBounds" />
          </mxGeometry>
        </mxCell>
        <mxCell id="8j5CEaMQhX4lXEdDIJTh-405" value="DATE_SURR_ID" style="shape=partialRectangle;overflow=hidden;connectable=0;fillColor=none;top=0;left=0;bottom=0;right=0;align=left;spacingLeft=6;fontStyle=1" parent="8j5CEaMQhX4lXEdDIJTh-403" vertex="1">
          <mxGeometry x="30" width="152.05889533547793" height="30" as="geometry">
            <mxRectangle width="152.05889533547793" height="30" as="alternateBounds" />
          </mxGeometry>
        </mxCell>
        <mxCell id="8j5CEaMQhX4lXEdDIJTh-406" value="BIGINT" style="shape=partialRectangle;overflow=hidden;connectable=0;fillColor=none;top=0;left=0;bottom=0;right=0;align=left;spacingLeft=6;fontStyle=1" parent="8j5CEaMQhX4lXEdDIJTh-403" vertex="1">
          <mxGeometry x="182.05889533547793" width="120.94110466452207" height="30" as="geometry">
            <mxRectangle width="120.94110466452207" height="30" as="alternateBounds" />
          </mxGeometry>
        </mxCell>
        <mxCell id="8j5CEaMQhX4lXEdDIJTh-407" style="shape=partialRectangle;collapsible=0;dropTarget=0;pointerEvents=0;fillColor=none;points=[[0,0.5],[1,0.5]];portConstraint=eastwest;top=0;left=0;right=0;bottom=0;" parent="8j5CEaMQhX4lXEdDIJTh-382" vertex="1">
          <mxGeometry y="180" width="303" height="30" as="geometry" />
        </mxCell>
        <mxCell id="8j5CEaMQhX4lXEdDIJTh-408" value="FK5" style="shape=partialRectangle;overflow=hidden;connectable=0;fillColor=none;top=0;left=0;bottom=0;right=0;fontStyle=1" parent="8j5CEaMQhX4lXEdDIJTh-407" vertex="1">
          <mxGeometry width="30" height="30" as="geometry">
            <mxRectangle width="30" height="30" as="alternateBounds" />
          </mxGeometry>
        </mxCell>
        <mxCell id="8j5CEaMQhX4lXEdDIJTh-409" value="TX_TYPE_SURR_ID" style="shape=partialRectangle;overflow=hidden;connectable=0;fillColor=none;top=0;left=0;bottom=0;right=0;align=left;spacingLeft=6;fontStyle=1" parent="8j5CEaMQhX4lXEdDIJTh-407" vertex="1">
          <mxGeometry x="30" width="152.05889533547793" height="30" as="geometry">
            <mxRectangle width="152.05889533547793" height="30" as="alternateBounds" />
          </mxGeometry>
        </mxCell>
        <mxCell id="8j5CEaMQhX4lXEdDIJTh-410" value="BIGINT" style="shape=partialRectangle;overflow=hidden;connectable=0;fillColor=none;top=0;left=0;bottom=0;right=0;align=left;spacingLeft=6;fontStyle=1" parent="8j5CEaMQhX4lXEdDIJTh-407" vertex="1">
          <mxGeometry x="182.05889533547793" width="120.94110466452207" height="30" as="geometry">
            <mxRectangle width="120.94110466452207" height="30" as="alternateBounds" />
          </mxGeometry>
        </mxCell>
        <mxCell id="8j5CEaMQhX4lXEdDIJTh-423" style="shape=partialRectangle;collapsible=0;dropTarget=0;pointerEvents=0;fillColor=none;points=[[0,0.5],[1,0.5]];portConstraint=eastwest;top=0;left=0;right=0;bottom=0;" parent="8j5CEaMQhX4lXEdDIJTh-382" vertex="1">
          <mxGeometry y="210" width="303" height="29" as="geometry" />
        </mxCell>
        <mxCell id="8j5CEaMQhX4lXEdDIJTh-424" style="shape=partialRectangle;overflow=hidden;connectable=0;fillColor=none;top=0;left=0;bottom=0;right=0;" parent="8j5CEaMQhX4lXEdDIJTh-423" vertex="1">
          <mxGeometry width="30" height="29" as="geometry">
            <mxRectangle width="30" height="29" as="alternateBounds" />
          </mxGeometry>
        </mxCell>
        <mxCell id="8j5CEaMQhX4lXEdDIJTh-425" value="URL " style="shape=partialRectangle;overflow=hidden;connectable=0;fillColor=none;top=0;left=0;bottom=0;right=0;align=left;spacingLeft=6;fontStyle=1" parent="8j5CEaMQhX4lXEdDIJTh-423" vertex="1">
          <mxGeometry x="30" width="152.05889533547793" height="29" as="geometry">
            <mxRectangle width="152.05889533547793" height="29" as="alternateBounds" />
          </mxGeometry>
        </mxCell>
        <mxCell id="8j5CEaMQhX4lXEdDIJTh-426" value="VARCHAR(500)" style="shape=partialRectangle;overflow=hidden;connectable=0;fillColor=none;top=0;left=0;bottom=0;right=0;align=left;spacingLeft=6;fontStyle=1" parent="8j5CEaMQhX4lXEdDIJTh-423" vertex="1">
          <mxGeometry x="182.05889533547793" width="120.94110466452207" height="29" as="geometry">
            <mxRectangle width="120.94110466452207" height="29" as="alternateBounds" />
          </mxGeometry>
        </mxCell>
        <mxCell id="8j5CEaMQhX4lXEdDIJTh-427" style="shape=partialRectangle;collapsible=0;dropTarget=0;pointerEvents=0;fillColor=none;points=[[0,0.5],[1,0.5]];portConstraint=eastwest;top=0;left=0;right=0;bottom=0;" parent="8j5CEaMQhX4lXEdDIJTh-382" vertex="1">
          <mxGeometry y="239" width="303" height="29" as="geometry" />
        </mxCell>
        <mxCell id="8j5CEaMQhX4lXEdDIJTh-428" style="shape=partialRectangle;overflow=hidden;connectable=0;fillColor=none;top=0;left=0;bottom=0;right=0;" parent="8j5CEaMQhX4lXEdDIJTh-427" vertex="1">
          <mxGeometry width="30" height="29" as="geometry">
            <mxRectangle width="30" height="29" as="alternateBounds" />
          </mxGeometry>
        </mxCell>
        <mxCell id="8j5CEaMQhX4lXEdDIJTh-429" value="PRICE " style="shape=partialRectangle;overflow=hidden;connectable=0;fillColor=none;top=0;left=0;bottom=0;right=0;align=left;spacingLeft=6;fontStyle=1" parent="8j5CEaMQhX4lXEdDIJTh-427" vertex="1">
          <mxGeometry x="30" width="152.05889533547793" height="29" as="geometry">
            <mxRectangle width="152.05889533547793" height="29" as="alternateBounds" />
          </mxGeometry>
        </mxCell>
        <mxCell id="8j5CEaMQhX4lXEdDIJTh-430" value="DECIMAL" style="shape=partialRectangle;overflow=hidden;connectable=0;fillColor=none;top=0;left=0;bottom=0;right=0;align=left;spacingLeft=6;fontStyle=1" parent="8j5CEaMQhX4lXEdDIJTh-427" vertex="1">
          <mxGeometry x="182.05889533547793" width="120.94110466452207" height="29" as="geometry">
            <mxRectangle width="120.94110466452207" height="29" as="alternateBounds" />
          </mxGeometry>
        </mxCell>
        <mxCell id="8j5CEaMQhX4lXEdDIJTh-431" style="shape=partialRectangle;collapsible=0;dropTarget=0;pointerEvents=0;fillColor=none;points=[[0,0.5],[1,0.5]];portConstraint=eastwest;top=0;left=0;right=0;bottom=0;" parent="8j5CEaMQhX4lXEdDIJTh-382" vertex="1">
          <mxGeometry y="268" width="303" height="30" as="geometry" />
        </mxCell>
        <mxCell id="8j5CEaMQhX4lXEdDIJTh-432" style="shape=partialRectangle;overflow=hidden;connectable=0;fillColor=none;top=0;left=0;bottom=0;right=0;" parent="8j5CEaMQhX4lXEdDIJTh-431" vertex="1">
          <mxGeometry width="30" height="30" as="geometry">
            <mxRectangle width="30" height="30" as="alternateBounds" />
          </mxGeometry>
        </mxCell>
        <mxCell id="8j5CEaMQhX4lXEdDIJTh-433" value="PRICE_PER_SQM   " style="shape=partialRectangle;overflow=hidden;connectable=0;fillColor=none;top=0;left=0;bottom=0;right=0;align=left;spacingLeft=6;fontStyle=1" parent="8j5CEaMQhX4lXEdDIJTh-431" vertex="1">
          <mxGeometry x="30" width="152.05889533547793" height="30" as="geometry">
            <mxRectangle width="152.05889533547793" height="30" as="alternateBounds" />
          </mxGeometry>
        </mxCell>
        <mxCell id="8j5CEaMQhX4lXEdDIJTh-434" value="DECIMAL" style="shape=partialRectangle;overflow=hidden;connectable=0;fillColor=none;top=0;left=0;bottom=0;right=0;align=left;spacingLeft=6;fontStyle=1" parent="8j5CEaMQhX4lXEdDIJTh-431" vertex="1">
          <mxGeometry x="182.05889533547793" width="120.94110466452207" height="30" as="geometry">
            <mxRectangle width="120.94110466452207" height="30" as="alternateBounds" />
          </mxGeometry>
        </mxCell>
        <mxCell id="8j5CEaMQhX4lXEdDIJTh-435" style="shape=partialRectangle;collapsible=0;dropTarget=0;pointerEvents=0;fillColor=none;points=[[0,0.5],[1,0.5]];portConstraint=eastwest;top=0;left=0;right=0;bottom=0;" parent="8j5CEaMQhX4lXEdDIJTh-382" vertex="1">
          <mxGeometry y="298" width="303" height="30" as="geometry" />
        </mxCell>
        <mxCell id="8j5CEaMQhX4lXEdDIJTh-436" style="shape=partialRectangle;overflow=hidden;connectable=0;fillColor=none;top=0;left=0;bottom=0;right=0;" parent="8j5CEaMQhX4lXEdDIJTh-435" vertex="1">
          <mxGeometry width="30" height="30" as="geometry">
            <mxRectangle width="30" height="30" as="alternateBounds" />
          </mxGeometry>
        </mxCell>
        <mxCell id="8j5CEaMQhX4lXEdDIJTh-437" value="AREA_M2 " style="shape=partialRectangle;overflow=hidden;connectable=0;fillColor=none;top=0;left=0;bottom=0;right=0;align=left;spacingLeft=6;fontStyle=1" parent="8j5CEaMQhX4lXEdDIJTh-435" vertex="1">
          <mxGeometry x="30" width="152.05889533547793" height="30" as="geometry">
            <mxRectangle width="152.05889533547793" height="30" as="alternateBounds" />
          </mxGeometry>
        </mxCell>
        <mxCell id="8j5CEaMQhX4lXEdDIJTh-438" value="DECIMAL" style="shape=partialRectangle;overflow=hidden;connectable=0;fillColor=none;top=0;left=0;bottom=0;right=0;align=left;spacingLeft=6;fontStyle=1" parent="8j5CEaMQhX4lXEdDIJTh-435" vertex="1">
          <mxGeometry x="182.05889533547793" width="120.94110466452207" height="30" as="geometry">
            <mxRectangle width="120.94110466452207" height="30" as="alternateBounds" />
          </mxGeometry>
        </mxCell>
        <mxCell id="8j5CEaMQhX4lXEdDIJTh-439" style="shape=partialRectangle;collapsible=0;dropTarget=0;pointerEvents=0;fillColor=none;points=[[0,0.5],[1,0.5]];portConstraint=eastwest;top=0;left=0;right=0;bottom=0;" parent="8j5CEaMQhX4lXEdDIJTh-382" vertex="1">
          <mxGeometry y="328" width="303" height="30" as="geometry" />
        </mxCell>
        <mxCell id="8j5CEaMQhX4lXEdDIJTh-440" style="shape=partialRectangle;overflow=hidden;connectable=0;fillColor=none;top=0;left=0;bottom=0;right=0;" parent="8j5CEaMQhX4lXEdDIJTh-439" vertex="1">
          <mxGeometry width="30" height="30" as="geometry">
            <mxRectangle width="30" height="30" as="alternateBounds" />
          </mxGeometry>
        </mxCell>
        <mxCell id="8j5CEaMQhX4lXEdDIJTh-441" value="BEDROOMS " style="shape=partialRectangle;overflow=hidden;connectable=0;fillColor=none;top=0;left=0;bottom=0;right=0;align=left;spacingLeft=6;fontStyle=1" parent="8j5CEaMQhX4lXEdDIJTh-439" vertex="1">
          <mxGeometry x="30" width="152.05889533547793" height="30" as="geometry">
            <mxRectangle width="152.05889533547793" height="30" as="alternateBounds" />
          </mxGeometry>
        </mxCell>
        <mxCell id="8j5CEaMQhX4lXEdDIJTh-442" value="INT" style="shape=partialRectangle;overflow=hidden;connectable=0;fillColor=none;top=0;left=0;bottom=0;right=0;align=left;spacingLeft=6;fontStyle=1" parent="8j5CEaMQhX4lXEdDIJTh-439" vertex="1">
          <mxGeometry x="182.05889533547793" width="120.94110466452207" height="30" as="geometry">
            <mxRectangle width="120.94110466452207" height="30" as="alternateBounds" />
          </mxGeometry>
        </mxCell>
        <mxCell id="8j5CEaMQhX4lXEdDIJTh-443" style="shape=partialRectangle;collapsible=0;dropTarget=0;pointerEvents=0;fillColor=none;points=[[0,0.5],[1,0.5]];portConstraint=eastwest;top=0;left=0;right=0;bottom=0;" parent="8j5CEaMQhX4lXEdDIJTh-382" vertex="1">
          <mxGeometry y="358" width="303" height="35" as="geometry" />
        </mxCell>
        <mxCell id="8j5CEaMQhX4lXEdDIJTh-444" style="shape=partialRectangle;overflow=hidden;connectable=0;fillColor=none;top=0;left=0;bottom=0;right=0;" parent="8j5CEaMQhX4lXEdDIJTh-443" vertex="1">
          <mxGeometry width="30" height="35" as="geometry">
            <mxRectangle width="30" height="35" as="alternateBounds" />
          </mxGeometry>
        </mxCell>
        <mxCell id="8j5CEaMQhX4lXEdDIJTh-445" value="FLOOR  " style="shape=partialRectangle;overflow=hidden;connectable=0;fillColor=none;top=0;left=0;bottom=0;right=0;align=left;spacingLeft=6;fontStyle=1" parent="8j5CEaMQhX4lXEdDIJTh-443" vertex="1">
          <mxGeometry x="30" width="152.05889533547793" height="35" as="geometry">
            <mxRectangle width="152.05889533547793" height="35" as="alternateBounds" />
          </mxGeometry>
        </mxCell>
        <mxCell id="8j5CEaMQhX4lXEdDIJTh-446" value="INT" style="shape=partialRectangle;overflow=hidden;connectable=0;fillColor=none;top=0;left=0;bottom=0;right=0;align=left;spacingLeft=6;fontStyle=1" parent="8j5CEaMQhX4lXEdDIJTh-443" vertex="1">
          <mxGeometry x="182.05889533547793" width="120.94110466452207" height="35" as="geometry">
            <mxRectangle width="120.94110466452207" height="35" as="alternateBounds" />
          </mxGeometry>
        </mxCell>
        <mxCell id="tTmst1pcSYhVb5LAMEtV-6" value="" style="shape=tableRow;horizontal=0;startSize=0;swimlaneHead=0;swimlaneBody=0;fillColor=none;collapsible=0;dropTarget=0;points=[[0,0.5],[1,0.5]];portConstraint=eastwest;top=0;left=0;right=0;bottom=0;" parent="8j5CEaMQhX4lXEdDIJTh-382" vertex="1">
          <mxGeometry y="393" width="303" height="30" as="geometry" />
        </mxCell>
        <mxCell id="tTmst1pcSYhVb5LAMEtV-7" value="" style="shape=partialRectangle;connectable=0;fillColor=none;top=0;left=0;bottom=0;right=0;editable=1;overflow=hidden;" parent="tTmst1pcSYhVb5LAMEtV-6" vertex="1">
          <mxGeometry width="30" height="30" as="geometry">
            <mxRectangle width="30" height="30" as="alternateBounds" />
          </mxGeometry>
        </mxCell>
        <mxCell id="tTmst1pcSYhVb5LAMEtV-8" value="DESCRIPTION " style="shape=partialRectangle;connectable=0;fillColor=none;top=0;left=0;bottom=0;right=0;align=left;spacingLeft=6;overflow=hidden;fontStyle=1" parent="tTmst1pcSYhVb5LAMEtV-6" vertex="1">
          <mxGeometry x="30" width="152.05889533547793" height="30" as="geometry">
            <mxRectangle width="152.05889533547793" height="30" as="alternateBounds" />
          </mxGeometry>
        </mxCell>
        <mxCell id="tTmst1pcSYhVb5LAMEtV-9" value="TEXT" style="shape=partialRectangle;connectable=0;fillColor=none;top=0;left=0;bottom=0;right=0;align=left;spacingLeft=6;overflow=hidden;fontStyle=1" parent="tTmst1pcSYhVb5LAMEtV-6" vertex="1">
          <mxGeometry x="182.05889533547793" width="120.94110466452207" height="30" as="geometry">
            <mxRectangle width="120.94110466452207" height="30" as="alternateBounds" />
          </mxGeometry>
        </mxCell>
        <mxCell id="8j5CEaMQhX4lXEdDIJTh-447" style="shape=partialRectangle;collapsible=0;dropTarget=0;pointerEvents=0;fillColor=none;points=[[0,0.5],[1,0.5]];portConstraint=eastwest;top=0;left=0;right=0;bottom=0;" parent="8j5CEaMQhX4lXEdDIJTh-382" vertex="1">
          <mxGeometry y="423" width="303" height="30" as="geometry" />
        </mxCell>
        <mxCell id="8j5CEaMQhX4lXEdDIJTh-448" style="shape=partialRectangle;overflow=hidden;connectable=0;fillColor=none;top=0;left=0;bottom=0;right=0;" parent="8j5CEaMQhX4lXEdDIJTh-447" vertex="1">
          <mxGeometry width="30" height="30" as="geometry">
            <mxRectangle width="30" height="30" as="alternateBounds" />
          </mxGeometry>
        </mxCell>
        <mxCell id="8j5CEaMQhX4lXEdDIJTh-449" value="TA_INSERT_DT" style="shape=partialRectangle;overflow=hidden;connectable=0;fillColor=none;top=0;left=0;bottom=0;right=0;align=left;spacingLeft=6;fontStyle=1" parent="8j5CEaMQhX4lXEdDIJTh-447" vertex="1">
          <mxGeometry x="30" width="152.05889533547793" height="30" as="geometry">
            <mxRectangle width="152.05889533547793" height="30" as="alternateBounds" />
          </mxGeometry>
        </mxCell>
        <mxCell id="8j5CEaMQhX4lXEdDIJTh-450" value="DATE" style="shape=partialRectangle;overflow=hidden;connectable=0;fillColor=none;top=0;left=0;bottom=0;right=0;align=left;spacingLeft=6;fontStyle=1" parent="8j5CEaMQhX4lXEdDIJTh-447" vertex="1">
          <mxGeometry x="182.05889533547793" width="120.94110466452207" height="30" as="geometry">
            <mxRectangle width="120.94110466452207" height="30" as="alternateBounds" />
          </mxGeometry>
        </mxCell>
        <mxCell id="8j5CEaMQhX4lXEdDIJTh-451" style="shape=partialRectangle;collapsible=0;dropTarget=0;pointerEvents=0;fillColor=none;points=[[0,0.5],[1,0.5]];portConstraint=eastwest;top=0;left=0;right=0;bottom=0;" parent="8j5CEaMQhX4lXEdDIJTh-382" vertex="1">
          <mxGeometry y="453" width="303" height="30" as="geometry" />
        </mxCell>
        <mxCell id="8j5CEaMQhX4lXEdDIJTh-452" style="shape=partialRectangle;overflow=hidden;connectable=0;fillColor=none;top=0;left=0;bottom=0;right=0;" parent="8j5CEaMQhX4lXEdDIJTh-451" vertex="1">
          <mxGeometry width="30" height="30" as="geometry">
            <mxRectangle width="30" height="30" as="alternateBounds" />
          </mxGeometry>
        </mxCell>
        <mxCell id="8j5CEaMQhX4lXEdDIJTh-453" value="TA_UPDATE_DT" style="shape=partialRectangle;overflow=hidden;connectable=0;fillColor=none;top=0;left=0;bottom=0;right=0;align=left;spacingLeft=6;fontStyle=1" parent="8j5CEaMQhX4lXEdDIJTh-451" vertex="1">
          <mxGeometry x="30" width="152.05889533547793" height="30" as="geometry">
            <mxRectangle width="152.05889533547793" height="30" as="alternateBounds" />
          </mxGeometry>
        </mxCell>
        <mxCell id="8j5CEaMQhX4lXEdDIJTh-454" value="DATE" style="shape=partialRectangle;overflow=hidden;connectable=0;fillColor=none;top=0;left=0;bottom=0;right=0;align=left;spacingLeft=6;fontStyle=1" parent="8j5CEaMQhX4lXEdDIJTh-451" vertex="1">
          <mxGeometry x="182.05889533547793" width="120.94110466452207" height="30" as="geometry">
            <mxRectangle width="120.94110466452207" height="30" as="alternateBounds" />
          </mxGeometry>
        </mxCell>
        <mxCell id="8j5CEaMQhX4lXEdDIJTh-455" style="shape=partialRectangle;collapsible=0;dropTarget=0;pointerEvents=0;fillColor=none;points=[[0,0.5],[1,0.5]];portConstraint=eastwest;top=0;left=0;right=0;bottom=0;" parent="8j5CEaMQhX4lXEdDIJTh-382" vertex="1">
          <mxGeometry y="483" width="303" height="30" as="geometry" />
        </mxCell>
        <mxCell id="8j5CEaMQhX4lXEdDIJTh-456" style="shape=partialRectangle;overflow=hidden;connectable=0;fillColor=none;top=0;left=0;bottom=0;right=0;" parent="8j5CEaMQhX4lXEdDIJTh-455" vertex="1">
          <mxGeometry width="30" height="30" as="geometry">
            <mxRectangle width="30" height="30" as="alternateBounds" />
          </mxGeometry>
        </mxCell>
        <mxCell id="8j5CEaMQhX4lXEdDIJTh-457" value="APARTMENT_SRC_ID" style="shape=partialRectangle;overflow=hidden;connectable=0;fillColor=none;top=0;left=0;bottom=0;right=0;align=left;spacingLeft=6;fontStyle=1" parent="8j5CEaMQhX4lXEdDIJTh-455" vertex="1">
          <mxGeometry x="30" width="152.05889533547793" height="30" as="geometry">
            <mxRectangle width="152.05889533547793" height="30" as="alternateBounds" />
          </mxGeometry>
        </mxCell>
        <mxCell id="8j5CEaMQhX4lXEdDIJTh-458" value="VARCHAR" style="shape=partialRectangle;overflow=hidden;connectable=0;fillColor=none;top=0;left=0;bottom=0;right=0;align=left;spacingLeft=6;fontStyle=1" parent="8j5CEaMQhX4lXEdDIJTh-455" vertex="1">
          <mxGeometry x="182.05889533547793" width="120.94110466452207" height="30" as="geometry">
            <mxRectangle width="120.94110466452207" height="30" as="alternateBounds" />
          </mxGeometry>
        </mxCell>
        <mxCell id="8j5CEaMQhX4lXEdDIJTh-459" style="shape=partialRectangle;collapsible=0;dropTarget=0;pointerEvents=0;fillColor=none;points=[[0,0.5],[1,0.5]];portConstraint=eastwest;top=0;left=0;right=0;bottom=0;" parent="8j5CEaMQhX4lXEdDIJTh-382" vertex="1">
          <mxGeometry y="513" width="303" height="30" as="geometry" />
        </mxCell>
        <mxCell id="8j5CEaMQhX4lXEdDIJTh-460" style="shape=partialRectangle;overflow=hidden;connectable=0;fillColor=none;top=0;left=0;bottom=0;right=0;" parent="8j5CEaMQhX4lXEdDIJTh-459" vertex="1">
          <mxGeometry width="30" height="30" as="geometry">
            <mxRectangle width="30" height="30" as="alternateBounds" />
          </mxGeometry>
        </mxCell>
        <mxCell id="8j5CEaMQhX4lXEdDIJTh-461" value="SOURCE_SYSTEM" style="shape=partialRectangle;overflow=hidden;connectable=0;fillColor=none;top=0;left=0;bottom=0;right=0;align=left;spacingLeft=6;fontStyle=1" parent="8j5CEaMQhX4lXEdDIJTh-459" vertex="1">
          <mxGeometry x="30" width="152.05889533547793" height="30" as="geometry">
            <mxRectangle width="152.05889533547793" height="30" as="alternateBounds" />
          </mxGeometry>
        </mxCell>
        <mxCell id="8j5CEaMQhX4lXEdDIJTh-462" value="VARCHAR" style="shape=partialRectangle;overflow=hidden;connectable=0;fillColor=none;top=0;left=0;bottom=0;right=0;align=left;spacingLeft=6;fontStyle=1" parent="8j5CEaMQhX4lXEdDIJTh-459" vertex="1">
          <mxGeometry x="182.05889533547793" width="120.94110466452207" height="30" as="geometry">
            <mxRectangle width="120.94110466452207" height="30" as="alternateBounds" />
          </mxGeometry>
        </mxCell>
        <mxCell id="8j5CEaMQhX4lXEdDIJTh-463" style="shape=partialRectangle;collapsible=0;dropTarget=0;pointerEvents=0;fillColor=none;points=[[0,0.5],[1,0.5]];portConstraint=eastwest;top=0;left=0;right=0;bottom=0;" parent="8j5CEaMQhX4lXEdDIJTh-382" vertex="1">
          <mxGeometry y="543" width="303" height="30" as="geometry" />
        </mxCell>
        <mxCell id="8j5CEaMQhX4lXEdDIJTh-464" style="shape=partialRectangle;overflow=hidden;connectable=0;fillColor=none;top=0;left=0;bottom=0;right=0;" parent="8j5CEaMQhX4lXEdDIJTh-463" vertex="1">
          <mxGeometry width="30" height="30" as="geometry">
            <mxRectangle width="30" height="30" as="alternateBounds" />
          </mxGeometry>
        </mxCell>
        <mxCell id="8j5CEaMQhX4lXEdDIJTh-465" value="SOURCE_ENTITY" style="shape=partialRectangle;overflow=hidden;connectable=0;fillColor=none;top=0;left=0;bottom=0;right=0;align=left;spacingLeft=6;fontStyle=1" parent="8j5CEaMQhX4lXEdDIJTh-463" vertex="1">
          <mxGeometry x="30" width="152.05889533547793" height="30" as="geometry">
            <mxRectangle width="152.05889533547793" height="30" as="alternateBounds" />
          </mxGeometry>
        </mxCell>
        <mxCell id="8j5CEaMQhX4lXEdDIJTh-466" value="VARCHAR" style="shape=partialRectangle;overflow=hidden;connectable=0;fillColor=none;top=0;left=0;bottom=0;right=0;align=left;spacingLeft=6;fontStyle=1" parent="8j5CEaMQhX4lXEdDIJTh-463" vertex="1">
          <mxGeometry x="182.05889533547793" width="120.94110466452207" height="30" as="geometry">
            <mxRectangle width="120.94110466452207" height="30" as="alternateBounds" />
          </mxGeometry>
        </mxCell>
        <mxCell id="8j5CEaMQhX4lXEdDIJTh-496" value="DIM_DATES" style="shape=table;startSize=30;container=1;collapsible=1;childLayout=tableLayout;fixedRows=1;rowLines=0;fontStyle=1;align=center;resizeLast=1;fontSize=15;" parent="1" vertex="1">
          <mxGeometry x="188" y="139" width="304" height="390" as="geometry" />
        </mxCell>
        <mxCell id="8j5CEaMQhX4lXEdDIJTh-497" value="" style="shape=partialRectangle;collapsible=0;dropTarget=0;pointerEvents=0;fillColor=none;points=[[0,0.5],[1,0.5]];portConstraint=eastwest;top=0;left=0;right=0;bottom=1;" parent="8j5CEaMQhX4lXEdDIJTh-496" vertex="1">
          <mxGeometry y="30" width="304" height="30" as="geometry" />
        </mxCell>
        <mxCell id="8j5CEaMQhX4lXEdDIJTh-498" value="PK" style="shape=partialRectangle;overflow=hidden;connectable=0;fillColor=none;top=0;left=0;bottom=0;right=0;fontStyle=1;" parent="8j5CEaMQhX4lXEdDIJTh-497" vertex="1">
          <mxGeometry width="30" height="30" as="geometry">
            <mxRectangle width="30" height="30" as="alternateBounds" />
          </mxGeometry>
        </mxCell>
        <mxCell id="8j5CEaMQhX4lXEdDIJTh-499" value="DATE_SURR_ID" style="shape=partialRectangle;overflow=hidden;connectable=0;fillColor=none;top=0;left=0;bottom=0;right=0;align=left;spacingLeft=6;fontStyle=5;" parent="8j5CEaMQhX4lXEdDIJTh-497" vertex="1">
          <mxGeometry x="30" width="145.70591107536774" height="30" as="geometry">
            <mxRectangle width="145.70591107536774" height="30" as="alternateBounds" />
          </mxGeometry>
        </mxCell>
        <mxCell id="8j5CEaMQhX4lXEdDIJTh-500" value="BIGINT NOT NULL" style="shape=partialRectangle;overflow=hidden;connectable=0;fillColor=none;top=0;left=0;bottom=0;right=0;align=left;spacingLeft=6;fontStyle=5;" parent="8j5CEaMQhX4lXEdDIJTh-497" vertex="1">
          <mxGeometry x="175.70591107536774" width="128.29408892463226" height="30" as="geometry">
            <mxRectangle width="128.29408892463226" height="30" as="alternateBounds" />
          </mxGeometry>
        </mxCell>
        <mxCell id="tTmst1pcSYhVb5LAMEtV-10" value="" style="shape=tableRow;horizontal=0;startSize=0;swimlaneHead=0;swimlaneBody=0;fillColor=none;collapsible=0;dropTarget=0;points=[[0,0.5],[1,0.5]];portConstraint=eastwest;top=0;left=0;right=0;bottom=0;" parent="8j5CEaMQhX4lXEdDIJTh-496" vertex="1">
          <mxGeometry y="60" width="304" height="30" as="geometry" />
        </mxCell>
        <mxCell id="tTmst1pcSYhVb5LAMEtV-11" value="" style="shape=partialRectangle;connectable=0;fillColor=none;top=0;left=0;bottom=0;right=0;editable=1;overflow=hidden;" parent="tTmst1pcSYhVb5LAMEtV-10" vertex="1">
          <mxGeometry width="30" height="30" as="geometry">
            <mxRectangle width="30" height="30" as="alternateBounds" />
          </mxGeometry>
        </mxCell>
        <mxCell id="tTmst1pcSYhVb5LAMEtV-12" value="DATE_DT" style="shape=partialRectangle;connectable=0;fillColor=none;top=0;left=0;bottom=0;right=0;align=left;spacingLeft=6;overflow=hidden;fontStyle=1" parent="tTmst1pcSYhVb5LAMEtV-10" vertex="1">
          <mxGeometry x="30" width="145.70591107536774" height="30" as="geometry">
            <mxRectangle width="145.70591107536774" height="30" as="alternateBounds" />
          </mxGeometry>
        </mxCell>
        <mxCell id="tTmst1pcSYhVb5LAMEtV-13" value="TIMESTAMP" style="shape=partialRectangle;connectable=0;fillColor=none;top=0;left=0;bottom=0;right=0;align=left;spacingLeft=6;overflow=hidden;fontStyle=1" parent="tTmst1pcSYhVb5LAMEtV-10" vertex="1">
          <mxGeometry x="175.70591107536774" width="128.29408892463226" height="30" as="geometry">
            <mxRectangle width="128.29408892463226" height="30" as="alternateBounds" />
          </mxGeometry>
        </mxCell>
        <mxCell id="8j5CEaMQhX4lXEdDIJTh-501" value="" style="shape=partialRectangle;collapsible=0;dropTarget=0;pointerEvents=0;fillColor=none;points=[[0,0.5],[1,0.5]];portConstraint=eastwest;top=0;left=0;right=0;bottom=0;" parent="8j5CEaMQhX4lXEdDIJTh-496" vertex="1">
          <mxGeometry y="90" width="304" height="30" as="geometry" />
        </mxCell>
        <mxCell id="8j5CEaMQhX4lXEdDIJTh-502" value="" style="shape=partialRectangle;overflow=hidden;connectable=0;fillColor=none;top=0;left=0;bottom=0;right=0;" parent="8j5CEaMQhX4lXEdDIJTh-501" vertex="1">
          <mxGeometry width="30" height="30" as="geometry">
            <mxRectangle width="30" height="30" as="alternateBounds" />
          </mxGeometry>
        </mxCell>
        <mxCell id="8j5CEaMQhX4lXEdDIJTh-503" value="DATE_YEAR" style="shape=partialRectangle;overflow=hidden;connectable=0;fillColor=none;top=0;left=0;bottom=0;right=0;align=left;spacingLeft=6;fontStyle=1" parent="8j5CEaMQhX4lXEdDIJTh-501" vertex="1">
          <mxGeometry x="30" width="145.70591107536774" height="30" as="geometry">
            <mxRectangle width="145.70591107536774" height="30" as="alternateBounds" />
          </mxGeometry>
        </mxCell>
        <mxCell id="8j5CEaMQhX4lXEdDIJTh-504" value="INT" style="shape=partialRectangle;overflow=hidden;connectable=0;fillColor=none;top=0;left=0;bottom=0;right=0;align=left;spacingLeft=6;fontStyle=1" parent="8j5CEaMQhX4lXEdDIJTh-501" vertex="1">
          <mxGeometry x="175.70591107536774" width="128.29408892463226" height="30" as="geometry">
            <mxRectangle width="128.29408892463226" height="30" as="alternateBounds" />
          </mxGeometry>
        </mxCell>
        <mxCell id="8j5CEaMQhX4lXEdDIJTh-505" value="" style="shape=partialRectangle;collapsible=0;dropTarget=0;pointerEvents=0;fillColor=none;points=[[0,0.5],[1,0.5]];portConstraint=eastwest;top=0;left=0;right=0;bottom=0;" parent="8j5CEaMQhX4lXEdDIJTh-496" vertex="1">
          <mxGeometry y="120" width="304" height="30" as="geometry" />
        </mxCell>
        <mxCell id="8j5CEaMQhX4lXEdDIJTh-506" value="" style="shape=partialRectangle;overflow=hidden;connectable=0;fillColor=none;top=0;left=0;bottom=0;right=0;" parent="8j5CEaMQhX4lXEdDIJTh-505" vertex="1">
          <mxGeometry width="30" height="30" as="geometry">
            <mxRectangle width="30" height="30" as="alternateBounds" />
          </mxGeometry>
        </mxCell>
        <mxCell id="8j5CEaMQhX4lXEdDIJTh-507" value="DATE_MONTH" style="shape=partialRectangle;overflow=hidden;connectable=0;fillColor=none;top=0;left=0;bottom=0;right=0;align=left;spacingLeft=6;fontStyle=1" parent="8j5CEaMQhX4lXEdDIJTh-505" vertex="1">
          <mxGeometry x="30" width="145.70591107536774" height="30" as="geometry">
            <mxRectangle width="145.70591107536774" height="30" as="alternateBounds" />
          </mxGeometry>
        </mxCell>
        <mxCell id="8j5CEaMQhX4lXEdDIJTh-508" value="INT" style="shape=partialRectangle;overflow=hidden;connectable=0;fillColor=none;top=0;left=0;bottom=0;right=0;align=left;spacingLeft=6;fontStyle=1" parent="8j5CEaMQhX4lXEdDIJTh-505" vertex="1">
          <mxGeometry x="175.70591107536774" width="128.29408892463226" height="30" as="geometry">
            <mxRectangle width="128.29408892463226" height="30" as="alternateBounds" />
          </mxGeometry>
        </mxCell>
        <mxCell id="8j5CEaMQhX4lXEdDIJTh-509" style="shape=partialRectangle;collapsible=0;dropTarget=0;pointerEvents=0;fillColor=none;points=[[0,0.5],[1,0.5]];portConstraint=eastwest;top=0;left=0;right=0;bottom=0;" parent="8j5CEaMQhX4lXEdDIJTh-496" vertex="1">
          <mxGeometry y="150" width="304" height="30" as="geometry" />
        </mxCell>
        <mxCell id="8j5CEaMQhX4lXEdDIJTh-510" style="shape=partialRectangle;overflow=hidden;connectable=0;fillColor=none;top=0;left=0;bottom=0;right=0;" parent="8j5CEaMQhX4lXEdDIJTh-509" vertex="1">
          <mxGeometry width="30" height="30" as="geometry">
            <mxRectangle width="30" height="30" as="alternateBounds" />
          </mxGeometry>
        </mxCell>
        <mxCell id="8j5CEaMQhX4lXEdDIJTh-511" value="DATE_DAY" style="shape=partialRectangle;overflow=hidden;connectable=0;fillColor=none;top=0;left=0;bottom=0;right=0;align=left;spacingLeft=6;fontStyle=1" parent="8j5CEaMQhX4lXEdDIJTh-509" vertex="1">
          <mxGeometry x="30" width="145.70591107536774" height="30" as="geometry">
            <mxRectangle width="145.70591107536774" height="30" as="alternateBounds" />
          </mxGeometry>
        </mxCell>
        <mxCell id="8j5CEaMQhX4lXEdDIJTh-512" value="INT" style="shape=partialRectangle;overflow=hidden;connectable=0;fillColor=none;top=0;left=0;bottom=0;right=0;align=left;spacingLeft=6;fontStyle=1" parent="8j5CEaMQhX4lXEdDIJTh-509" vertex="1">
          <mxGeometry x="175.70591107536774" width="128.29408892463226" height="30" as="geometry">
            <mxRectangle width="128.29408892463226" height="30" as="alternateBounds" />
          </mxGeometry>
        </mxCell>
        <mxCell id="8j5CEaMQhX4lXEdDIJTh-525" style="shape=partialRectangle;collapsible=0;dropTarget=0;pointerEvents=0;fillColor=none;points=[[0,0.5],[1,0.5]];portConstraint=eastwest;top=0;left=0;right=0;bottom=0;" parent="8j5CEaMQhX4lXEdDIJTh-496" vertex="1">
          <mxGeometry y="180" width="304" height="30" as="geometry" />
        </mxCell>
        <mxCell id="8j5CEaMQhX4lXEdDIJTh-526" style="shape=partialRectangle;overflow=hidden;connectable=0;fillColor=none;top=0;left=0;bottom=0;right=0;" parent="8j5CEaMQhX4lXEdDIJTh-525" vertex="1">
          <mxGeometry width="30" height="30" as="geometry">
            <mxRectangle width="30" height="30" as="alternateBounds" />
          </mxGeometry>
        </mxCell>
        <mxCell id="8j5CEaMQhX4lXEdDIJTh-527" value="DATE_DAY_OF_WEEK" style="shape=partialRectangle;overflow=hidden;connectable=0;fillColor=none;top=0;left=0;bottom=0;right=0;align=left;spacingLeft=6;fontStyle=1" parent="8j5CEaMQhX4lXEdDIJTh-525" vertex="1">
          <mxGeometry x="30" width="145.70591107536774" height="30" as="geometry">
            <mxRectangle width="145.70591107536774" height="30" as="alternateBounds" />
          </mxGeometry>
        </mxCell>
        <mxCell id="8j5CEaMQhX4lXEdDIJTh-528" value="VARCHAR(20)" style="shape=partialRectangle;overflow=hidden;connectable=0;fillColor=none;top=0;left=0;bottom=0;right=0;align=left;spacingLeft=6;fontStyle=1" parent="8j5CEaMQhX4lXEdDIJTh-525" vertex="1">
          <mxGeometry x="175.70591107536774" width="128.29408892463226" height="30" as="geometry">
            <mxRectangle width="128.29408892463226" height="30" as="alternateBounds" />
          </mxGeometry>
        </mxCell>
        <mxCell id="8j5CEaMQhX4lXEdDIJTh-529" style="shape=partialRectangle;collapsible=0;dropTarget=0;pointerEvents=0;fillColor=none;points=[[0,0.5],[1,0.5]];portConstraint=eastwest;top=0;left=0;right=0;bottom=0;" parent="8j5CEaMQhX4lXEdDIJTh-496" vertex="1">
          <mxGeometry y="210" width="304" height="30" as="geometry" />
        </mxCell>
        <mxCell id="8j5CEaMQhX4lXEdDIJTh-530" style="shape=partialRectangle;overflow=hidden;connectable=0;fillColor=none;top=0;left=0;bottom=0;right=0;" parent="8j5CEaMQhX4lXEdDIJTh-529" vertex="1">
          <mxGeometry width="30" height="30" as="geometry">
            <mxRectangle width="30" height="30" as="alternateBounds" />
          </mxGeometry>
        </mxCell>
        <mxCell id="8j5CEaMQhX4lXEdDIJTh-531" value="DATE_IS_WEEKEND" style="shape=partialRectangle;overflow=hidden;connectable=0;fillColor=none;top=0;left=0;bottom=0;right=0;align=left;spacingLeft=6;fontStyle=1" parent="8j5CEaMQhX4lXEdDIJTh-529" vertex="1">
          <mxGeometry x="30" width="145.70591107536774" height="30" as="geometry">
            <mxRectangle width="145.70591107536774" height="30" as="alternateBounds" />
          </mxGeometry>
        </mxCell>
        <mxCell id="8j5CEaMQhX4lXEdDIJTh-532" value="BOOLEAN" style="shape=partialRectangle;overflow=hidden;connectable=0;fillColor=none;top=0;left=0;bottom=0;right=0;align=left;spacingLeft=6;fontStyle=1" parent="8j5CEaMQhX4lXEdDIJTh-529" vertex="1">
          <mxGeometry x="175.70591107536774" width="128.29408892463226" height="30" as="geometry">
            <mxRectangle width="128.29408892463226" height="30" as="alternateBounds" />
          </mxGeometry>
        </mxCell>
        <mxCell id="8j5CEaMQhX4lXEdDIJTh-533" style="shape=partialRectangle;collapsible=0;dropTarget=0;pointerEvents=0;fillColor=none;points=[[0,0.5],[1,0.5]];portConstraint=eastwest;top=0;left=0;right=0;bottom=0;" parent="8j5CEaMQhX4lXEdDIJTh-496" vertex="1">
          <mxGeometry y="240" width="304" height="30" as="geometry" />
        </mxCell>
        <mxCell id="8j5CEaMQhX4lXEdDIJTh-534" style="shape=partialRectangle;overflow=hidden;connectable=0;fillColor=none;top=0;left=0;bottom=0;right=0;" parent="8j5CEaMQhX4lXEdDIJTh-533" vertex="1">
          <mxGeometry width="30" height="30" as="geometry">
            <mxRectangle width="30" height="30" as="alternateBounds" />
          </mxGeometry>
        </mxCell>
        <mxCell id="8j5CEaMQhX4lXEdDIJTh-535" value="TA_INSERT_DT" style="shape=partialRectangle;overflow=hidden;connectable=0;fillColor=none;top=0;left=0;bottom=0;right=0;align=left;spacingLeft=6;fontStyle=1" parent="8j5CEaMQhX4lXEdDIJTh-533" vertex="1">
          <mxGeometry x="30" width="145.70591107536774" height="30" as="geometry">
            <mxRectangle width="145.70591107536774" height="30" as="alternateBounds" />
          </mxGeometry>
        </mxCell>
        <mxCell id="8j5CEaMQhX4lXEdDIJTh-536" value="DATE" style="shape=partialRectangle;overflow=hidden;connectable=0;fillColor=none;top=0;left=0;bottom=0;right=0;align=left;spacingLeft=6;fontStyle=1" parent="8j5CEaMQhX4lXEdDIJTh-533" vertex="1">
          <mxGeometry x="175.70591107536774" width="128.29408892463226" height="30" as="geometry">
            <mxRectangle width="128.29408892463226" height="30" as="alternateBounds" />
          </mxGeometry>
        </mxCell>
        <mxCell id="8j5CEaMQhX4lXEdDIJTh-537" style="shape=partialRectangle;collapsible=0;dropTarget=0;pointerEvents=0;fillColor=none;points=[[0,0.5],[1,0.5]];portConstraint=eastwest;top=0;left=0;right=0;bottom=0;" parent="8j5CEaMQhX4lXEdDIJTh-496" vertex="1">
          <mxGeometry y="270" width="304" height="30" as="geometry" />
        </mxCell>
        <mxCell id="8j5CEaMQhX4lXEdDIJTh-538" style="shape=partialRectangle;overflow=hidden;connectable=0;fillColor=none;top=0;left=0;bottom=0;right=0;" parent="8j5CEaMQhX4lXEdDIJTh-537" vertex="1">
          <mxGeometry width="30" height="30" as="geometry">
            <mxRectangle width="30" height="30" as="alternateBounds" />
          </mxGeometry>
        </mxCell>
        <mxCell id="8j5CEaMQhX4lXEdDIJTh-539" value="TA_UPDATE_DT" style="shape=partialRectangle;overflow=hidden;connectable=0;fillColor=none;top=0;left=0;bottom=0;right=0;align=left;spacingLeft=6;fontStyle=1" parent="8j5CEaMQhX4lXEdDIJTh-537" vertex="1">
          <mxGeometry x="30" width="145.70591107536774" height="30" as="geometry">
            <mxRectangle width="145.70591107536774" height="30" as="alternateBounds" />
          </mxGeometry>
        </mxCell>
        <mxCell id="8j5CEaMQhX4lXEdDIJTh-540" value="DATE" style="shape=partialRectangle;overflow=hidden;connectable=0;fillColor=none;top=0;left=0;bottom=0;right=0;align=left;spacingLeft=6;fontStyle=1" parent="8j5CEaMQhX4lXEdDIJTh-537" vertex="1">
          <mxGeometry x="175.70591107536774" width="128.29408892463226" height="30" as="geometry">
            <mxRectangle width="128.29408892463226" height="30" as="alternateBounds" />
          </mxGeometry>
        </mxCell>
        <mxCell id="8j5CEaMQhX4lXEdDIJTh-541" style="shape=partialRectangle;collapsible=0;dropTarget=0;pointerEvents=0;fillColor=none;points=[[0,0.5],[1,0.5]];portConstraint=eastwest;top=0;left=0;right=0;bottom=0;" parent="8j5CEaMQhX4lXEdDIJTh-496" vertex="1">
          <mxGeometry y="300" width="304" height="30" as="geometry" />
        </mxCell>
        <mxCell id="8j5CEaMQhX4lXEdDIJTh-542" style="shape=partialRectangle;overflow=hidden;connectable=0;fillColor=none;top=0;left=0;bottom=0;right=0;" parent="8j5CEaMQhX4lXEdDIJTh-541" vertex="1">
          <mxGeometry width="30" height="30" as="geometry">
            <mxRectangle width="30" height="30" as="alternateBounds" />
          </mxGeometry>
        </mxCell>
        <mxCell id="8j5CEaMQhX4lXEdDIJTh-543" value="DATE_SRC_ID" style="shape=partialRectangle;overflow=hidden;connectable=0;fillColor=none;top=0;left=0;bottom=0;right=0;align=left;spacingLeft=6;fontStyle=1" parent="8j5CEaMQhX4lXEdDIJTh-541" vertex="1">
          <mxGeometry x="30" width="145.70591107536774" height="30" as="geometry">
            <mxRectangle width="145.70591107536774" height="30" as="alternateBounds" />
          </mxGeometry>
        </mxCell>
        <mxCell id="8j5CEaMQhX4lXEdDIJTh-544" value="VARCHAR" style="shape=partialRectangle;overflow=hidden;connectable=0;fillColor=none;top=0;left=0;bottom=0;right=0;align=left;spacingLeft=6;fontStyle=1" parent="8j5CEaMQhX4lXEdDIJTh-541" vertex="1">
          <mxGeometry x="175.70591107536774" width="128.29408892463226" height="30" as="geometry">
            <mxRectangle width="128.29408892463226" height="30" as="alternateBounds" />
          </mxGeometry>
        </mxCell>
        <mxCell id="8j5CEaMQhX4lXEdDIJTh-545" style="shape=partialRectangle;collapsible=0;dropTarget=0;pointerEvents=0;fillColor=none;points=[[0,0.5],[1,0.5]];portConstraint=eastwest;top=0;left=0;right=0;bottom=0;" parent="8j5CEaMQhX4lXEdDIJTh-496" vertex="1">
          <mxGeometry y="330" width="304" height="30" as="geometry" />
        </mxCell>
        <mxCell id="8j5CEaMQhX4lXEdDIJTh-546" style="shape=partialRectangle;overflow=hidden;connectable=0;fillColor=none;top=0;left=0;bottom=0;right=0;" parent="8j5CEaMQhX4lXEdDIJTh-545" vertex="1">
          <mxGeometry width="30" height="30" as="geometry">
            <mxRectangle width="30" height="30" as="alternateBounds" />
          </mxGeometry>
        </mxCell>
        <mxCell id="8j5CEaMQhX4lXEdDIJTh-547" value="SOURCE_SYSTEM" style="shape=partialRectangle;overflow=hidden;connectable=0;fillColor=none;top=0;left=0;bottom=0;right=0;align=left;spacingLeft=6;fontStyle=1" parent="8j5CEaMQhX4lXEdDIJTh-545" vertex="1">
          <mxGeometry x="30" width="145.70591107536774" height="30" as="geometry">
            <mxRectangle width="145.70591107536774" height="30" as="alternateBounds" />
          </mxGeometry>
        </mxCell>
        <mxCell id="8j5CEaMQhX4lXEdDIJTh-548" value="VARCHAR" style="shape=partialRectangle;overflow=hidden;connectable=0;fillColor=none;top=0;left=0;bottom=0;right=0;align=left;spacingLeft=6;fontStyle=1" parent="8j5CEaMQhX4lXEdDIJTh-545" vertex="1">
          <mxGeometry x="175.70591107536774" width="128.29408892463226" height="30" as="geometry">
            <mxRectangle width="128.29408892463226" height="30" as="alternateBounds" />
          </mxGeometry>
        </mxCell>
        <mxCell id="8j5CEaMQhX4lXEdDIJTh-549" style="shape=partialRectangle;collapsible=0;dropTarget=0;pointerEvents=0;fillColor=none;points=[[0,0.5],[1,0.5]];portConstraint=eastwest;top=0;left=0;right=0;bottom=0;" parent="8j5CEaMQhX4lXEdDIJTh-496" vertex="1">
          <mxGeometry y="360" width="304" height="30" as="geometry" />
        </mxCell>
        <mxCell id="8j5CEaMQhX4lXEdDIJTh-550" style="shape=partialRectangle;overflow=hidden;connectable=0;fillColor=none;top=0;left=0;bottom=0;right=0;" parent="8j5CEaMQhX4lXEdDIJTh-549" vertex="1">
          <mxGeometry width="30" height="30" as="geometry">
            <mxRectangle width="30" height="30" as="alternateBounds" />
          </mxGeometry>
        </mxCell>
        <mxCell id="8j5CEaMQhX4lXEdDIJTh-551" value="SOURCE_ENTITY" style="shape=partialRectangle;overflow=hidden;connectable=0;fillColor=none;top=0;left=0;bottom=0;right=0;align=left;spacingLeft=6;fontStyle=1" parent="8j5CEaMQhX4lXEdDIJTh-549" vertex="1">
          <mxGeometry x="30" width="145.70591107536774" height="30" as="geometry">
            <mxRectangle width="145.70591107536774" height="30" as="alternateBounds" />
          </mxGeometry>
        </mxCell>
        <mxCell id="8j5CEaMQhX4lXEdDIJTh-552" value="VARCHAR" style="shape=partialRectangle;overflow=hidden;connectable=0;fillColor=none;top=0;left=0;bottom=0;right=0;align=left;spacingLeft=6;fontStyle=1" parent="8j5CEaMQhX4lXEdDIJTh-549" vertex="1">
          <mxGeometry x="175.70591107536774" width="128.29408892463226" height="30" as="geometry">
            <mxRectangle width="128.29408892463226" height="30" as="alternateBounds" />
          </mxGeometry>
        </mxCell>
        <mxCell id="LadDfvhg25KDEvU-yFwc-1" value="" style="edgeStyle=entityRelationEdgeStyle;fontSize=12;html=1;endArrow=ERoneToMany;rounded=0;" edge="1" parent="1" source="8j5CEaMQhX4lXEdDIJTh-497" target="8j5CEaMQhX4lXEdDIJTh-403">
          <mxGeometry width="100" height="100" relative="1" as="geometry">
            <mxPoint x="499" y="573" as="sourcePoint" />
            <mxPoint x="887" y="363" as="targetPoint" />
            <Array as="points">
              <mxPoint x="693" y="508" />
            </Array>
          </mxGeometry>
        </mxCell>
        <mxCell id="LadDfvhg25KDEvU-yFwc-3" value="DIM_CITIES" style="shape=table;startSize=30;container=1;collapsible=1;childLayout=tableLayout;fixedRows=1;rowLines=0;fontStyle=1;align=center;resizeLast=1;fontSize=15;" vertex="1" parent="1">
          <mxGeometry x="917" y="119" width="304" height="240" as="geometry" />
        </mxCell>
        <mxCell id="LadDfvhg25KDEvU-yFwc-4" value="" style="shape=partialRectangle;collapsible=0;dropTarget=0;pointerEvents=0;fillColor=none;points=[[0,0.5],[1,0.5]];portConstraint=eastwest;top=0;left=0;right=0;bottom=1;" vertex="1" parent="LadDfvhg25KDEvU-yFwc-3">
          <mxGeometry y="30" width="304" height="30" as="geometry" />
        </mxCell>
        <mxCell id="LadDfvhg25KDEvU-yFwc-5" value="PK" style="shape=partialRectangle;overflow=hidden;connectable=0;fillColor=none;top=0;left=0;bottom=0;right=0;fontStyle=1;" vertex="1" parent="LadDfvhg25KDEvU-yFwc-4">
          <mxGeometry width="30" height="30" as="geometry">
            <mxRectangle width="30" height="30" as="alternateBounds" />
          </mxGeometry>
        </mxCell>
        <mxCell id="LadDfvhg25KDEvU-yFwc-6" value="CITY_SURR_ID" style="shape=partialRectangle;overflow=hidden;connectable=0;fillColor=none;top=0;left=0;bottom=0;right=0;align=left;spacingLeft=6;fontStyle=5;" vertex="1" parent="LadDfvhg25KDEvU-yFwc-4">
          <mxGeometry x="30" width="145.70591107536774" height="30" as="geometry">
            <mxRectangle width="145.70591107536774" height="30" as="alternateBounds" />
          </mxGeometry>
        </mxCell>
        <mxCell id="LadDfvhg25KDEvU-yFwc-7" value="BIGINT NOT NULL" style="shape=partialRectangle;overflow=hidden;connectable=0;fillColor=none;top=0;left=0;bottom=0;right=0;align=left;spacingLeft=6;fontStyle=5;" vertex="1" parent="LadDfvhg25KDEvU-yFwc-4">
          <mxGeometry x="175.70591107536774" width="128.29408892463226" height="30" as="geometry">
            <mxRectangle width="128.29408892463226" height="30" as="alternateBounds" />
          </mxGeometry>
        </mxCell>
        <mxCell id="LadDfvhg25KDEvU-yFwc-8" value="" style="shape=tableRow;horizontal=0;startSize=0;swimlaneHead=0;swimlaneBody=0;fillColor=none;collapsible=0;dropTarget=0;points=[[0,0.5],[1,0.5]];portConstraint=eastwest;top=0;left=0;right=0;bottom=0;" vertex="1" parent="LadDfvhg25KDEvU-yFwc-3">
          <mxGeometry y="60" width="304" height="30" as="geometry" />
        </mxCell>
        <mxCell id="LadDfvhg25KDEvU-yFwc-9" value="" style="shape=partialRectangle;connectable=0;fillColor=none;top=0;left=0;bottom=0;right=0;editable=1;overflow=hidden;" vertex="1" parent="LadDfvhg25KDEvU-yFwc-8">
          <mxGeometry width="30" height="30" as="geometry">
            <mxRectangle width="30" height="30" as="alternateBounds" />
          </mxGeometry>
        </mxCell>
        <mxCell id="LadDfvhg25KDEvU-yFwc-10" value="CITY_NAME" style="shape=partialRectangle;connectable=0;fillColor=none;top=0;left=0;bottom=0;right=0;align=left;spacingLeft=6;overflow=hidden;fontStyle=1" vertex="1" parent="LadDfvhg25KDEvU-yFwc-8">
          <mxGeometry x="30" width="145.70591107536774" height="30" as="geometry">
            <mxRectangle width="145.70591107536774" height="30" as="alternateBounds" />
          </mxGeometry>
        </mxCell>
        <mxCell id="LadDfvhg25KDEvU-yFwc-11" value="VARCHAR(100)" style="shape=partialRectangle;connectable=0;fillColor=none;top=0;left=0;bottom=0;right=0;align=left;spacingLeft=6;overflow=hidden;fontStyle=1" vertex="1" parent="LadDfvhg25KDEvU-yFwc-8">
          <mxGeometry x="175.70591107536774" width="128.29408892463226" height="30" as="geometry">
            <mxRectangle width="128.29408892463226" height="30" as="alternateBounds" />
          </mxGeometry>
        </mxCell>
        <mxCell id="LadDfvhg25KDEvU-yFwc-32" style="shape=partialRectangle;collapsible=0;dropTarget=0;pointerEvents=0;fillColor=none;points=[[0,0.5],[1,0.5]];portConstraint=eastwest;top=0;left=0;right=0;bottom=0;" vertex="1" parent="LadDfvhg25KDEvU-yFwc-3">
          <mxGeometry y="90" width="304" height="30" as="geometry" />
        </mxCell>
        <mxCell id="LadDfvhg25KDEvU-yFwc-33" style="shape=partialRectangle;overflow=hidden;connectable=0;fillColor=none;top=0;left=0;bottom=0;right=0;" vertex="1" parent="LadDfvhg25KDEvU-yFwc-32">
          <mxGeometry width="30" height="30" as="geometry">
            <mxRectangle width="30" height="30" as="alternateBounds" />
          </mxGeometry>
        </mxCell>
        <mxCell id="LadDfvhg25KDEvU-yFwc-34" value="TA_INSERT_DT" style="shape=partialRectangle;overflow=hidden;connectable=0;fillColor=none;top=0;left=0;bottom=0;right=0;align=left;spacingLeft=6;fontStyle=1" vertex="1" parent="LadDfvhg25KDEvU-yFwc-32">
          <mxGeometry x="30" width="145.70591107536774" height="30" as="geometry">
            <mxRectangle width="145.70591107536774" height="30" as="alternateBounds" />
          </mxGeometry>
        </mxCell>
        <mxCell id="LadDfvhg25KDEvU-yFwc-35" value="DATE" style="shape=partialRectangle;overflow=hidden;connectable=0;fillColor=none;top=0;left=0;bottom=0;right=0;align=left;spacingLeft=6;fontStyle=1" vertex="1" parent="LadDfvhg25KDEvU-yFwc-32">
          <mxGeometry x="175.70591107536774" width="128.29408892463226" height="30" as="geometry">
            <mxRectangle width="128.29408892463226" height="30" as="alternateBounds" />
          </mxGeometry>
        </mxCell>
        <mxCell id="LadDfvhg25KDEvU-yFwc-36" style="shape=partialRectangle;collapsible=0;dropTarget=0;pointerEvents=0;fillColor=none;points=[[0,0.5],[1,0.5]];portConstraint=eastwest;top=0;left=0;right=0;bottom=0;" vertex="1" parent="LadDfvhg25KDEvU-yFwc-3">
          <mxGeometry y="120" width="304" height="30" as="geometry" />
        </mxCell>
        <mxCell id="LadDfvhg25KDEvU-yFwc-37" style="shape=partialRectangle;overflow=hidden;connectable=0;fillColor=none;top=0;left=0;bottom=0;right=0;" vertex="1" parent="LadDfvhg25KDEvU-yFwc-36">
          <mxGeometry width="30" height="30" as="geometry">
            <mxRectangle width="30" height="30" as="alternateBounds" />
          </mxGeometry>
        </mxCell>
        <mxCell id="LadDfvhg25KDEvU-yFwc-38" value="TA_UPDATE_DT" style="shape=partialRectangle;overflow=hidden;connectable=0;fillColor=none;top=0;left=0;bottom=0;right=0;align=left;spacingLeft=6;fontStyle=1" vertex="1" parent="LadDfvhg25KDEvU-yFwc-36">
          <mxGeometry x="30" width="145.70591107536774" height="30" as="geometry">
            <mxRectangle width="145.70591107536774" height="30" as="alternateBounds" />
          </mxGeometry>
        </mxCell>
        <mxCell id="LadDfvhg25KDEvU-yFwc-39" value="DATE" style="shape=partialRectangle;overflow=hidden;connectable=0;fillColor=none;top=0;left=0;bottom=0;right=0;align=left;spacingLeft=6;fontStyle=1" vertex="1" parent="LadDfvhg25KDEvU-yFwc-36">
          <mxGeometry x="175.70591107536774" width="128.29408892463226" height="30" as="geometry">
            <mxRectangle width="128.29408892463226" height="30" as="alternateBounds" />
          </mxGeometry>
        </mxCell>
        <mxCell id="LadDfvhg25KDEvU-yFwc-40" style="shape=partialRectangle;collapsible=0;dropTarget=0;pointerEvents=0;fillColor=none;points=[[0,0.5],[1,0.5]];portConstraint=eastwest;top=0;left=0;right=0;bottom=0;" vertex="1" parent="LadDfvhg25KDEvU-yFwc-3">
          <mxGeometry y="150" width="304" height="30" as="geometry" />
        </mxCell>
        <mxCell id="LadDfvhg25KDEvU-yFwc-41" style="shape=partialRectangle;overflow=hidden;connectable=0;fillColor=none;top=0;left=0;bottom=0;right=0;" vertex="1" parent="LadDfvhg25KDEvU-yFwc-40">
          <mxGeometry width="30" height="30" as="geometry">
            <mxRectangle width="30" height="30" as="alternateBounds" />
          </mxGeometry>
        </mxCell>
        <mxCell id="LadDfvhg25KDEvU-yFwc-42" value="CITY_SRC_ID" style="shape=partialRectangle;overflow=hidden;connectable=0;fillColor=none;top=0;left=0;bottom=0;right=0;align=left;spacingLeft=6;fontStyle=1" vertex="1" parent="LadDfvhg25KDEvU-yFwc-40">
          <mxGeometry x="30" width="145.70591107536774" height="30" as="geometry">
            <mxRectangle width="145.70591107536774" height="30" as="alternateBounds" />
          </mxGeometry>
        </mxCell>
        <mxCell id="LadDfvhg25KDEvU-yFwc-43" value="VARCHAR" style="shape=partialRectangle;overflow=hidden;connectable=0;fillColor=none;top=0;left=0;bottom=0;right=0;align=left;spacingLeft=6;fontStyle=1" vertex="1" parent="LadDfvhg25KDEvU-yFwc-40">
          <mxGeometry x="175.70591107536774" width="128.29408892463226" height="30" as="geometry">
            <mxRectangle width="128.29408892463226" height="30" as="alternateBounds" />
          </mxGeometry>
        </mxCell>
        <mxCell id="LadDfvhg25KDEvU-yFwc-44" style="shape=partialRectangle;collapsible=0;dropTarget=0;pointerEvents=0;fillColor=none;points=[[0,0.5],[1,0.5]];portConstraint=eastwest;top=0;left=0;right=0;bottom=0;" vertex="1" parent="LadDfvhg25KDEvU-yFwc-3">
          <mxGeometry y="180" width="304" height="30" as="geometry" />
        </mxCell>
        <mxCell id="LadDfvhg25KDEvU-yFwc-45" style="shape=partialRectangle;overflow=hidden;connectable=0;fillColor=none;top=0;left=0;bottom=0;right=0;" vertex="1" parent="LadDfvhg25KDEvU-yFwc-44">
          <mxGeometry width="30" height="30" as="geometry">
            <mxRectangle width="30" height="30" as="alternateBounds" />
          </mxGeometry>
        </mxCell>
        <mxCell id="LadDfvhg25KDEvU-yFwc-46" value="SOURCE_SYSTEM" style="shape=partialRectangle;overflow=hidden;connectable=0;fillColor=none;top=0;left=0;bottom=0;right=0;align=left;spacingLeft=6;fontStyle=1" vertex="1" parent="LadDfvhg25KDEvU-yFwc-44">
          <mxGeometry x="30" width="145.70591107536774" height="30" as="geometry">
            <mxRectangle width="145.70591107536774" height="30" as="alternateBounds" />
          </mxGeometry>
        </mxCell>
        <mxCell id="LadDfvhg25KDEvU-yFwc-47" value="VARCHAR" style="shape=partialRectangle;overflow=hidden;connectable=0;fillColor=none;top=0;left=0;bottom=0;right=0;align=left;spacingLeft=6;fontStyle=1" vertex="1" parent="LadDfvhg25KDEvU-yFwc-44">
          <mxGeometry x="175.70591107536774" width="128.29408892463226" height="30" as="geometry">
            <mxRectangle width="128.29408892463226" height="30" as="alternateBounds" />
          </mxGeometry>
        </mxCell>
        <mxCell id="LadDfvhg25KDEvU-yFwc-48" style="shape=partialRectangle;collapsible=0;dropTarget=0;pointerEvents=0;fillColor=none;points=[[0,0.5],[1,0.5]];portConstraint=eastwest;top=0;left=0;right=0;bottom=0;" vertex="1" parent="LadDfvhg25KDEvU-yFwc-3">
          <mxGeometry y="210" width="304" height="30" as="geometry" />
        </mxCell>
        <mxCell id="LadDfvhg25KDEvU-yFwc-49" style="shape=partialRectangle;overflow=hidden;connectable=0;fillColor=none;top=0;left=0;bottom=0;right=0;" vertex="1" parent="LadDfvhg25KDEvU-yFwc-48">
          <mxGeometry width="30" height="30" as="geometry">
            <mxRectangle width="30" height="30" as="alternateBounds" />
          </mxGeometry>
        </mxCell>
        <mxCell id="LadDfvhg25KDEvU-yFwc-50" value="SOURCE_ENTITY" style="shape=partialRectangle;overflow=hidden;connectable=0;fillColor=none;top=0;left=0;bottom=0;right=0;align=left;spacingLeft=6;fontStyle=1" vertex="1" parent="LadDfvhg25KDEvU-yFwc-48">
          <mxGeometry x="30" width="145.70591107536774" height="30" as="geometry">
            <mxRectangle width="145.70591107536774" height="30" as="alternateBounds" />
          </mxGeometry>
        </mxCell>
        <mxCell id="LadDfvhg25KDEvU-yFwc-51" value="VARCHAR" style="shape=partialRectangle;overflow=hidden;connectable=0;fillColor=none;top=0;left=0;bottom=0;right=0;align=left;spacingLeft=6;fontStyle=1" vertex="1" parent="LadDfvhg25KDEvU-yFwc-48">
          <mxGeometry x="175.70591107536774" width="128.29408892463226" height="30" as="geometry">
            <mxRectangle width="128.29408892463226" height="30" as="alternateBounds" />
          </mxGeometry>
        </mxCell>
        <mxCell id="LadDfvhg25KDEvU-yFwc-52" value="DIM_DISTRICTS" style="shape=table;startSize=30;container=1;collapsible=1;childLayout=tableLayout;fixedRows=1;rowLines=0;fontStyle=1;align=center;resizeLast=1;fontSize=15;" vertex="1" parent="1">
          <mxGeometry x="917" y="368" width="304" height="240" as="geometry" />
        </mxCell>
        <mxCell id="LadDfvhg25KDEvU-yFwc-53" value="" style="shape=partialRectangle;collapsible=0;dropTarget=0;pointerEvents=0;fillColor=none;points=[[0,0.5],[1,0.5]];portConstraint=eastwest;top=0;left=0;right=0;bottom=1;" vertex="1" parent="LadDfvhg25KDEvU-yFwc-52">
          <mxGeometry y="30" width="304" height="30" as="geometry" />
        </mxCell>
        <mxCell id="LadDfvhg25KDEvU-yFwc-54" value="PK" style="shape=partialRectangle;overflow=hidden;connectable=0;fillColor=none;top=0;left=0;bottom=0;right=0;fontStyle=1;" vertex="1" parent="LadDfvhg25KDEvU-yFwc-53">
          <mxGeometry width="30" height="30" as="geometry">
            <mxRectangle width="30" height="30" as="alternateBounds" />
          </mxGeometry>
        </mxCell>
        <mxCell id="LadDfvhg25KDEvU-yFwc-55" value="DISTRICT_SURR_ID" style="shape=partialRectangle;overflow=hidden;connectable=0;fillColor=none;top=0;left=0;bottom=0;right=0;align=left;spacingLeft=6;fontStyle=5;" vertex="1" parent="LadDfvhg25KDEvU-yFwc-53">
          <mxGeometry x="30" width="145.70591107536774" height="30" as="geometry">
            <mxRectangle width="145.70591107536774" height="30" as="alternateBounds" />
          </mxGeometry>
        </mxCell>
        <mxCell id="LadDfvhg25KDEvU-yFwc-56" value="BIGINT NOT NULL" style="shape=partialRectangle;overflow=hidden;connectable=0;fillColor=none;top=0;left=0;bottom=0;right=0;align=left;spacingLeft=6;fontStyle=5;" vertex="1" parent="LadDfvhg25KDEvU-yFwc-53">
          <mxGeometry x="175.70591107536774" width="128.29408892463226" height="30" as="geometry">
            <mxRectangle width="128.29408892463226" height="30" as="alternateBounds" />
          </mxGeometry>
        </mxCell>
        <mxCell id="LadDfvhg25KDEvU-yFwc-57" value="" style="shape=tableRow;horizontal=0;startSize=0;swimlaneHead=0;swimlaneBody=0;fillColor=none;collapsible=0;dropTarget=0;points=[[0,0.5],[1,0.5]];portConstraint=eastwest;top=0;left=0;right=0;bottom=0;" vertex="1" parent="LadDfvhg25KDEvU-yFwc-52">
          <mxGeometry y="60" width="304" height="30" as="geometry" />
        </mxCell>
        <mxCell id="LadDfvhg25KDEvU-yFwc-58" value="" style="shape=partialRectangle;connectable=0;fillColor=none;top=0;left=0;bottom=0;right=0;editable=1;overflow=hidden;" vertex="1" parent="LadDfvhg25KDEvU-yFwc-57">
          <mxGeometry width="30" height="30" as="geometry">
            <mxRectangle width="30" height="30" as="alternateBounds" />
          </mxGeometry>
        </mxCell>
        <mxCell id="LadDfvhg25KDEvU-yFwc-59" value="DISTRICT_NAME" style="shape=partialRectangle;connectable=0;fillColor=none;top=0;left=0;bottom=0;right=0;align=left;spacingLeft=6;overflow=hidden;fontStyle=1" vertex="1" parent="LadDfvhg25KDEvU-yFwc-57">
          <mxGeometry x="30" width="145.70591107536774" height="30" as="geometry">
            <mxRectangle width="145.70591107536774" height="30" as="alternateBounds" />
          </mxGeometry>
        </mxCell>
        <mxCell id="LadDfvhg25KDEvU-yFwc-60" value="VARCHAR(100)" style="shape=partialRectangle;connectable=0;fillColor=none;top=0;left=0;bottom=0;right=0;align=left;spacingLeft=6;overflow=hidden;fontStyle=1" vertex="1" parent="LadDfvhg25KDEvU-yFwc-57">
          <mxGeometry x="175.70591107536774" width="128.29408892463226" height="30" as="geometry">
            <mxRectangle width="128.29408892463226" height="30" as="alternateBounds" />
          </mxGeometry>
        </mxCell>
        <mxCell id="LadDfvhg25KDEvU-yFwc-61" style="shape=partialRectangle;collapsible=0;dropTarget=0;pointerEvents=0;fillColor=none;points=[[0,0.5],[1,0.5]];portConstraint=eastwest;top=0;left=0;right=0;bottom=0;" vertex="1" parent="LadDfvhg25KDEvU-yFwc-52">
          <mxGeometry y="90" width="304" height="30" as="geometry" />
        </mxCell>
        <mxCell id="LadDfvhg25KDEvU-yFwc-62" style="shape=partialRectangle;overflow=hidden;connectable=0;fillColor=none;top=0;left=0;bottom=0;right=0;" vertex="1" parent="LadDfvhg25KDEvU-yFwc-61">
          <mxGeometry width="30" height="30" as="geometry">
            <mxRectangle width="30" height="30" as="alternateBounds" />
          </mxGeometry>
        </mxCell>
        <mxCell id="LadDfvhg25KDEvU-yFwc-63" value="TA_INSERT_DT" style="shape=partialRectangle;overflow=hidden;connectable=0;fillColor=none;top=0;left=0;bottom=0;right=0;align=left;spacingLeft=6;fontStyle=1" vertex="1" parent="LadDfvhg25KDEvU-yFwc-61">
          <mxGeometry x="30" width="145.70591107536774" height="30" as="geometry">
            <mxRectangle width="145.70591107536774" height="30" as="alternateBounds" />
          </mxGeometry>
        </mxCell>
        <mxCell id="LadDfvhg25KDEvU-yFwc-64" value="DATE" style="shape=partialRectangle;overflow=hidden;connectable=0;fillColor=none;top=0;left=0;bottom=0;right=0;align=left;spacingLeft=6;fontStyle=1" vertex="1" parent="LadDfvhg25KDEvU-yFwc-61">
          <mxGeometry x="175.70591107536774" width="128.29408892463226" height="30" as="geometry">
            <mxRectangle width="128.29408892463226" height="30" as="alternateBounds" />
          </mxGeometry>
        </mxCell>
        <mxCell id="LadDfvhg25KDEvU-yFwc-65" style="shape=partialRectangle;collapsible=0;dropTarget=0;pointerEvents=0;fillColor=none;points=[[0,0.5],[1,0.5]];portConstraint=eastwest;top=0;left=0;right=0;bottom=0;" vertex="1" parent="LadDfvhg25KDEvU-yFwc-52">
          <mxGeometry y="120" width="304" height="30" as="geometry" />
        </mxCell>
        <mxCell id="LadDfvhg25KDEvU-yFwc-66" style="shape=partialRectangle;overflow=hidden;connectable=0;fillColor=none;top=0;left=0;bottom=0;right=0;" vertex="1" parent="LadDfvhg25KDEvU-yFwc-65">
          <mxGeometry width="30" height="30" as="geometry">
            <mxRectangle width="30" height="30" as="alternateBounds" />
          </mxGeometry>
        </mxCell>
        <mxCell id="LadDfvhg25KDEvU-yFwc-67" value="TA_UPDATE_DT" style="shape=partialRectangle;overflow=hidden;connectable=0;fillColor=none;top=0;left=0;bottom=0;right=0;align=left;spacingLeft=6;fontStyle=1" vertex="1" parent="LadDfvhg25KDEvU-yFwc-65">
          <mxGeometry x="30" width="145.70591107536774" height="30" as="geometry">
            <mxRectangle width="145.70591107536774" height="30" as="alternateBounds" />
          </mxGeometry>
        </mxCell>
        <mxCell id="LadDfvhg25KDEvU-yFwc-68" value="DATE" style="shape=partialRectangle;overflow=hidden;connectable=0;fillColor=none;top=0;left=0;bottom=0;right=0;align=left;spacingLeft=6;fontStyle=1" vertex="1" parent="LadDfvhg25KDEvU-yFwc-65">
          <mxGeometry x="175.70591107536774" width="128.29408892463226" height="30" as="geometry">
            <mxRectangle width="128.29408892463226" height="30" as="alternateBounds" />
          </mxGeometry>
        </mxCell>
        <mxCell id="LadDfvhg25KDEvU-yFwc-69" style="shape=partialRectangle;collapsible=0;dropTarget=0;pointerEvents=0;fillColor=none;points=[[0,0.5],[1,0.5]];portConstraint=eastwest;top=0;left=0;right=0;bottom=0;" vertex="1" parent="LadDfvhg25KDEvU-yFwc-52">
          <mxGeometry y="150" width="304" height="30" as="geometry" />
        </mxCell>
        <mxCell id="LadDfvhg25KDEvU-yFwc-70" style="shape=partialRectangle;overflow=hidden;connectable=0;fillColor=none;top=0;left=0;bottom=0;right=0;" vertex="1" parent="LadDfvhg25KDEvU-yFwc-69">
          <mxGeometry width="30" height="30" as="geometry">
            <mxRectangle width="30" height="30" as="alternateBounds" />
          </mxGeometry>
        </mxCell>
        <mxCell id="LadDfvhg25KDEvU-yFwc-71" value="DISTRICT_SRC_ID" style="shape=partialRectangle;overflow=hidden;connectable=0;fillColor=none;top=0;left=0;bottom=0;right=0;align=left;spacingLeft=6;fontStyle=1" vertex="1" parent="LadDfvhg25KDEvU-yFwc-69">
          <mxGeometry x="30" width="145.70591107536774" height="30" as="geometry">
            <mxRectangle width="145.70591107536774" height="30" as="alternateBounds" />
          </mxGeometry>
        </mxCell>
        <mxCell id="LadDfvhg25KDEvU-yFwc-72" value="VARCHAR" style="shape=partialRectangle;overflow=hidden;connectable=0;fillColor=none;top=0;left=0;bottom=0;right=0;align=left;spacingLeft=6;fontStyle=1" vertex="1" parent="LadDfvhg25KDEvU-yFwc-69">
          <mxGeometry x="175.70591107536774" width="128.29408892463226" height="30" as="geometry">
            <mxRectangle width="128.29408892463226" height="30" as="alternateBounds" />
          </mxGeometry>
        </mxCell>
        <mxCell id="LadDfvhg25KDEvU-yFwc-73" style="shape=partialRectangle;collapsible=0;dropTarget=0;pointerEvents=0;fillColor=none;points=[[0,0.5],[1,0.5]];portConstraint=eastwest;top=0;left=0;right=0;bottom=0;" vertex="1" parent="LadDfvhg25KDEvU-yFwc-52">
          <mxGeometry y="180" width="304" height="30" as="geometry" />
        </mxCell>
        <mxCell id="LadDfvhg25KDEvU-yFwc-74" style="shape=partialRectangle;overflow=hidden;connectable=0;fillColor=none;top=0;left=0;bottom=0;right=0;" vertex="1" parent="LadDfvhg25KDEvU-yFwc-73">
          <mxGeometry width="30" height="30" as="geometry">
            <mxRectangle width="30" height="30" as="alternateBounds" />
          </mxGeometry>
        </mxCell>
        <mxCell id="LadDfvhg25KDEvU-yFwc-75" value="SOURCE_SYSTEM" style="shape=partialRectangle;overflow=hidden;connectable=0;fillColor=none;top=0;left=0;bottom=0;right=0;align=left;spacingLeft=6;fontStyle=1" vertex="1" parent="LadDfvhg25KDEvU-yFwc-73">
          <mxGeometry x="30" width="145.70591107536774" height="30" as="geometry">
            <mxRectangle width="145.70591107536774" height="30" as="alternateBounds" />
          </mxGeometry>
        </mxCell>
        <mxCell id="LadDfvhg25KDEvU-yFwc-76" value="VARCHAR" style="shape=partialRectangle;overflow=hidden;connectable=0;fillColor=none;top=0;left=0;bottom=0;right=0;align=left;spacingLeft=6;fontStyle=1" vertex="1" parent="LadDfvhg25KDEvU-yFwc-73">
          <mxGeometry x="175.70591107536774" width="128.29408892463226" height="30" as="geometry">
            <mxRectangle width="128.29408892463226" height="30" as="alternateBounds" />
          </mxGeometry>
        </mxCell>
        <mxCell id="LadDfvhg25KDEvU-yFwc-77" style="shape=partialRectangle;collapsible=0;dropTarget=0;pointerEvents=0;fillColor=none;points=[[0,0.5],[1,0.5]];portConstraint=eastwest;top=0;left=0;right=0;bottom=0;" vertex="1" parent="LadDfvhg25KDEvU-yFwc-52">
          <mxGeometry y="210" width="304" height="30" as="geometry" />
        </mxCell>
        <mxCell id="LadDfvhg25KDEvU-yFwc-78" style="shape=partialRectangle;overflow=hidden;connectable=0;fillColor=none;top=0;left=0;bottom=0;right=0;" vertex="1" parent="LadDfvhg25KDEvU-yFwc-77">
          <mxGeometry width="30" height="30" as="geometry">
            <mxRectangle width="30" height="30" as="alternateBounds" />
          </mxGeometry>
        </mxCell>
        <mxCell id="LadDfvhg25KDEvU-yFwc-79" value="SOURCE_ENTITY" style="shape=partialRectangle;overflow=hidden;connectable=0;fillColor=none;top=0;left=0;bottom=0;right=0;align=left;spacingLeft=6;fontStyle=1" vertex="1" parent="LadDfvhg25KDEvU-yFwc-77">
          <mxGeometry x="30" width="145.70591107536774" height="30" as="geometry">
            <mxRectangle width="145.70591107536774" height="30" as="alternateBounds" />
          </mxGeometry>
        </mxCell>
        <mxCell id="LadDfvhg25KDEvU-yFwc-80" value="VARCHAR" style="shape=partialRectangle;overflow=hidden;connectable=0;fillColor=none;top=0;left=0;bottom=0;right=0;align=left;spacingLeft=6;fontStyle=1" vertex="1" parent="LadDfvhg25KDEvU-yFwc-77">
          <mxGeometry x="175.70591107536774" width="128.29408892463226" height="30" as="geometry">
            <mxRectangle width="128.29408892463226" height="30" as="alternateBounds" />
          </mxGeometry>
        </mxCell>
        <mxCell id="LadDfvhg25KDEvU-yFwc-82" value="DIM_STREETS" style="shape=table;startSize=30;container=1;collapsible=1;childLayout=tableLayout;fixedRows=1;rowLines=0;fontStyle=1;align=center;resizeLast=1;fontSize=15;" vertex="1" parent="1">
          <mxGeometry x="917" y="625" width="304" height="240" as="geometry" />
        </mxCell>
        <mxCell id="LadDfvhg25KDEvU-yFwc-83" value="" style="shape=partialRectangle;collapsible=0;dropTarget=0;pointerEvents=0;fillColor=none;points=[[0,0.5],[1,0.5]];portConstraint=eastwest;top=0;left=0;right=0;bottom=1;" vertex="1" parent="LadDfvhg25KDEvU-yFwc-82">
          <mxGeometry y="30" width="304" height="30" as="geometry" />
        </mxCell>
        <mxCell id="LadDfvhg25KDEvU-yFwc-84" value="PK" style="shape=partialRectangle;overflow=hidden;connectable=0;fillColor=none;top=0;left=0;bottom=0;right=0;fontStyle=1;" vertex="1" parent="LadDfvhg25KDEvU-yFwc-83">
          <mxGeometry width="30" height="30" as="geometry">
            <mxRectangle width="30" height="30" as="alternateBounds" />
          </mxGeometry>
        </mxCell>
        <mxCell id="LadDfvhg25KDEvU-yFwc-85" value="STREET_SURR_ID" style="shape=partialRectangle;overflow=hidden;connectable=0;fillColor=none;top=0;left=0;bottom=0;right=0;align=left;spacingLeft=6;fontStyle=5;" vertex="1" parent="LadDfvhg25KDEvU-yFwc-83">
          <mxGeometry x="30" width="145.70591107536774" height="30" as="geometry">
            <mxRectangle width="145.70591107536774" height="30" as="alternateBounds" />
          </mxGeometry>
        </mxCell>
        <mxCell id="LadDfvhg25KDEvU-yFwc-86" value="BIGINT NOT NULL" style="shape=partialRectangle;overflow=hidden;connectable=0;fillColor=none;top=0;left=0;bottom=0;right=0;align=left;spacingLeft=6;fontStyle=5;" vertex="1" parent="LadDfvhg25KDEvU-yFwc-83">
          <mxGeometry x="175.70591107536774" width="128.29408892463226" height="30" as="geometry">
            <mxRectangle width="128.29408892463226" height="30" as="alternateBounds" />
          </mxGeometry>
        </mxCell>
        <mxCell id="LadDfvhg25KDEvU-yFwc-87" value="" style="shape=tableRow;horizontal=0;startSize=0;swimlaneHead=0;swimlaneBody=0;fillColor=none;collapsible=0;dropTarget=0;points=[[0,0.5],[1,0.5]];portConstraint=eastwest;top=0;left=0;right=0;bottom=0;" vertex="1" parent="LadDfvhg25KDEvU-yFwc-82">
          <mxGeometry y="60" width="304" height="30" as="geometry" />
        </mxCell>
        <mxCell id="LadDfvhg25KDEvU-yFwc-88" value="" style="shape=partialRectangle;connectable=0;fillColor=none;top=0;left=0;bottom=0;right=0;editable=1;overflow=hidden;" vertex="1" parent="LadDfvhg25KDEvU-yFwc-87">
          <mxGeometry width="30" height="30" as="geometry">
            <mxRectangle width="30" height="30" as="alternateBounds" />
          </mxGeometry>
        </mxCell>
        <mxCell id="LadDfvhg25KDEvU-yFwc-89" value="STREET_NAME" style="shape=partialRectangle;connectable=0;fillColor=none;top=0;left=0;bottom=0;right=0;align=left;spacingLeft=6;overflow=hidden;fontStyle=1" vertex="1" parent="LadDfvhg25KDEvU-yFwc-87">
          <mxGeometry x="30" width="145.70591107536774" height="30" as="geometry">
            <mxRectangle width="145.70591107536774" height="30" as="alternateBounds" />
          </mxGeometry>
        </mxCell>
        <mxCell id="LadDfvhg25KDEvU-yFwc-90" value="VARCHAR(100)" style="shape=partialRectangle;connectable=0;fillColor=none;top=0;left=0;bottom=0;right=0;align=left;spacingLeft=6;overflow=hidden;fontStyle=1" vertex="1" parent="LadDfvhg25KDEvU-yFwc-87">
          <mxGeometry x="175.70591107536774" width="128.29408892463226" height="30" as="geometry">
            <mxRectangle width="128.29408892463226" height="30" as="alternateBounds" />
          </mxGeometry>
        </mxCell>
        <mxCell id="LadDfvhg25KDEvU-yFwc-91" style="shape=partialRectangle;collapsible=0;dropTarget=0;pointerEvents=0;fillColor=none;points=[[0,0.5],[1,0.5]];portConstraint=eastwest;top=0;left=0;right=0;bottom=0;" vertex="1" parent="LadDfvhg25KDEvU-yFwc-82">
          <mxGeometry y="90" width="304" height="30" as="geometry" />
        </mxCell>
        <mxCell id="LadDfvhg25KDEvU-yFwc-92" style="shape=partialRectangle;overflow=hidden;connectable=0;fillColor=none;top=0;left=0;bottom=0;right=0;" vertex="1" parent="LadDfvhg25KDEvU-yFwc-91">
          <mxGeometry width="30" height="30" as="geometry">
            <mxRectangle width="30" height="30" as="alternateBounds" />
          </mxGeometry>
        </mxCell>
        <mxCell id="LadDfvhg25KDEvU-yFwc-93" value="TA_INSERT_DT" style="shape=partialRectangle;overflow=hidden;connectable=0;fillColor=none;top=0;left=0;bottom=0;right=0;align=left;spacingLeft=6;fontStyle=1" vertex="1" parent="LadDfvhg25KDEvU-yFwc-91">
          <mxGeometry x="30" width="145.70591107536774" height="30" as="geometry">
            <mxRectangle width="145.70591107536774" height="30" as="alternateBounds" />
          </mxGeometry>
        </mxCell>
        <mxCell id="LadDfvhg25KDEvU-yFwc-94" value="DATE" style="shape=partialRectangle;overflow=hidden;connectable=0;fillColor=none;top=0;left=0;bottom=0;right=0;align=left;spacingLeft=6;fontStyle=1" vertex="1" parent="LadDfvhg25KDEvU-yFwc-91">
          <mxGeometry x="175.70591107536774" width="128.29408892463226" height="30" as="geometry">
            <mxRectangle width="128.29408892463226" height="30" as="alternateBounds" />
          </mxGeometry>
        </mxCell>
        <mxCell id="LadDfvhg25KDEvU-yFwc-95" style="shape=partialRectangle;collapsible=0;dropTarget=0;pointerEvents=0;fillColor=none;points=[[0,0.5],[1,0.5]];portConstraint=eastwest;top=0;left=0;right=0;bottom=0;" vertex="1" parent="LadDfvhg25KDEvU-yFwc-82">
          <mxGeometry y="120" width="304" height="30" as="geometry" />
        </mxCell>
        <mxCell id="LadDfvhg25KDEvU-yFwc-96" style="shape=partialRectangle;overflow=hidden;connectable=0;fillColor=none;top=0;left=0;bottom=0;right=0;" vertex="1" parent="LadDfvhg25KDEvU-yFwc-95">
          <mxGeometry width="30" height="30" as="geometry">
            <mxRectangle width="30" height="30" as="alternateBounds" />
          </mxGeometry>
        </mxCell>
        <mxCell id="LadDfvhg25KDEvU-yFwc-97" value="TA_UPDATE_DT" style="shape=partialRectangle;overflow=hidden;connectable=0;fillColor=none;top=0;left=0;bottom=0;right=0;align=left;spacingLeft=6;fontStyle=1" vertex="1" parent="LadDfvhg25KDEvU-yFwc-95">
          <mxGeometry x="30" width="145.70591107536774" height="30" as="geometry">
            <mxRectangle width="145.70591107536774" height="30" as="alternateBounds" />
          </mxGeometry>
        </mxCell>
        <mxCell id="LadDfvhg25KDEvU-yFwc-98" value="DATE" style="shape=partialRectangle;overflow=hidden;connectable=0;fillColor=none;top=0;left=0;bottom=0;right=0;align=left;spacingLeft=6;fontStyle=1" vertex="1" parent="LadDfvhg25KDEvU-yFwc-95">
          <mxGeometry x="175.70591107536774" width="128.29408892463226" height="30" as="geometry">
            <mxRectangle width="128.29408892463226" height="30" as="alternateBounds" />
          </mxGeometry>
        </mxCell>
        <mxCell id="LadDfvhg25KDEvU-yFwc-99" style="shape=partialRectangle;collapsible=0;dropTarget=0;pointerEvents=0;fillColor=none;points=[[0,0.5],[1,0.5]];portConstraint=eastwest;top=0;left=0;right=0;bottom=0;" vertex="1" parent="LadDfvhg25KDEvU-yFwc-82">
          <mxGeometry y="150" width="304" height="30" as="geometry" />
        </mxCell>
        <mxCell id="LadDfvhg25KDEvU-yFwc-100" style="shape=partialRectangle;overflow=hidden;connectable=0;fillColor=none;top=0;left=0;bottom=0;right=0;" vertex="1" parent="LadDfvhg25KDEvU-yFwc-99">
          <mxGeometry width="30" height="30" as="geometry">
            <mxRectangle width="30" height="30" as="alternateBounds" />
          </mxGeometry>
        </mxCell>
        <mxCell id="LadDfvhg25KDEvU-yFwc-101" value="DISTRICT_SRC_ID" style="shape=partialRectangle;overflow=hidden;connectable=0;fillColor=none;top=0;left=0;bottom=0;right=0;align=left;spacingLeft=6;fontStyle=1" vertex="1" parent="LadDfvhg25KDEvU-yFwc-99">
          <mxGeometry x="30" width="145.70591107536774" height="30" as="geometry">
            <mxRectangle width="145.70591107536774" height="30" as="alternateBounds" />
          </mxGeometry>
        </mxCell>
        <mxCell id="LadDfvhg25KDEvU-yFwc-102" value="VARCHAR" style="shape=partialRectangle;overflow=hidden;connectable=0;fillColor=none;top=0;left=0;bottom=0;right=0;align=left;spacingLeft=6;fontStyle=1" vertex="1" parent="LadDfvhg25KDEvU-yFwc-99">
          <mxGeometry x="175.70591107536774" width="128.29408892463226" height="30" as="geometry">
            <mxRectangle width="128.29408892463226" height="30" as="alternateBounds" />
          </mxGeometry>
        </mxCell>
        <mxCell id="LadDfvhg25KDEvU-yFwc-103" style="shape=partialRectangle;collapsible=0;dropTarget=0;pointerEvents=0;fillColor=none;points=[[0,0.5],[1,0.5]];portConstraint=eastwest;top=0;left=0;right=0;bottom=0;" vertex="1" parent="LadDfvhg25KDEvU-yFwc-82">
          <mxGeometry y="180" width="304" height="30" as="geometry" />
        </mxCell>
        <mxCell id="LadDfvhg25KDEvU-yFwc-104" style="shape=partialRectangle;overflow=hidden;connectable=0;fillColor=none;top=0;left=0;bottom=0;right=0;" vertex="1" parent="LadDfvhg25KDEvU-yFwc-103">
          <mxGeometry width="30" height="30" as="geometry">
            <mxRectangle width="30" height="30" as="alternateBounds" />
          </mxGeometry>
        </mxCell>
        <mxCell id="LadDfvhg25KDEvU-yFwc-105" value="SOURCE_SYSTEM" style="shape=partialRectangle;overflow=hidden;connectable=0;fillColor=none;top=0;left=0;bottom=0;right=0;align=left;spacingLeft=6;fontStyle=1" vertex="1" parent="LadDfvhg25KDEvU-yFwc-103">
          <mxGeometry x="30" width="145.70591107536774" height="30" as="geometry">
            <mxRectangle width="145.70591107536774" height="30" as="alternateBounds" />
          </mxGeometry>
        </mxCell>
        <mxCell id="LadDfvhg25KDEvU-yFwc-106" value="VARCHAR" style="shape=partialRectangle;overflow=hidden;connectable=0;fillColor=none;top=0;left=0;bottom=0;right=0;align=left;spacingLeft=6;fontStyle=1" vertex="1" parent="LadDfvhg25KDEvU-yFwc-103">
          <mxGeometry x="175.70591107536774" width="128.29408892463226" height="30" as="geometry">
            <mxRectangle width="128.29408892463226" height="30" as="alternateBounds" />
          </mxGeometry>
        </mxCell>
        <mxCell id="LadDfvhg25KDEvU-yFwc-107" style="shape=partialRectangle;collapsible=0;dropTarget=0;pointerEvents=0;fillColor=none;points=[[0,0.5],[1,0.5]];portConstraint=eastwest;top=0;left=0;right=0;bottom=0;" vertex="1" parent="LadDfvhg25KDEvU-yFwc-82">
          <mxGeometry y="210" width="304" height="30" as="geometry" />
        </mxCell>
        <mxCell id="LadDfvhg25KDEvU-yFwc-108" style="shape=partialRectangle;overflow=hidden;connectable=0;fillColor=none;top=0;left=0;bottom=0;right=0;" vertex="1" parent="LadDfvhg25KDEvU-yFwc-107">
          <mxGeometry width="30" height="30" as="geometry">
            <mxRectangle width="30" height="30" as="alternateBounds" />
          </mxGeometry>
        </mxCell>
        <mxCell id="LadDfvhg25KDEvU-yFwc-109" value="SOURCE_ENTITY" style="shape=partialRectangle;overflow=hidden;connectable=0;fillColor=none;top=0;left=0;bottom=0;right=0;align=left;spacingLeft=6;fontStyle=1" vertex="1" parent="LadDfvhg25KDEvU-yFwc-107">
          <mxGeometry x="30" width="145.70591107536774" height="30" as="geometry">
            <mxRectangle width="145.70591107536774" height="30" as="alternateBounds" />
          </mxGeometry>
        </mxCell>
        <mxCell id="LadDfvhg25KDEvU-yFwc-110" value="VARCHAR" style="shape=partialRectangle;overflow=hidden;connectable=0;fillColor=none;top=0;left=0;bottom=0;right=0;align=left;spacingLeft=6;fontStyle=1" vertex="1" parent="LadDfvhg25KDEvU-yFwc-107">
          <mxGeometry x="175.70591107536774" width="128.29408892463226" height="30" as="geometry">
            <mxRectangle width="128.29408892463226" height="30" as="alternateBounds" />
          </mxGeometry>
        </mxCell>
        <mxCell id="LadDfvhg25KDEvU-yFwc-111" value="DIM_TX_TYPES" style="shape=table;startSize=30;container=1;collapsible=1;childLayout=tableLayout;fixedRows=1;rowLines=0;fontStyle=1;align=center;resizeLast=1;fontSize=15;" vertex="1" parent="1">
          <mxGeometry x="188" y="552" width="305" height="235.2323529411768" as="geometry" />
        </mxCell>
        <mxCell id="LadDfvhg25KDEvU-yFwc-112" value="" style="shape=partialRectangle;collapsible=0;dropTarget=0;pointerEvents=0;fillColor=none;points=[[0,0.5],[1,0.5]];portConstraint=eastwest;top=0;left=0;right=0;bottom=1;" vertex="1" parent="LadDfvhg25KDEvU-yFwc-111">
          <mxGeometry y="30" width="305" height="30" as="geometry" />
        </mxCell>
        <mxCell id="LadDfvhg25KDEvU-yFwc-113" value="PK" style="shape=partialRectangle;overflow=hidden;connectable=0;fillColor=none;top=0;left=0;bottom=0;right=0;fontStyle=1;" vertex="1" parent="LadDfvhg25KDEvU-yFwc-112">
          <mxGeometry width="30" height="30" as="geometry">
            <mxRectangle width="30" height="30" as="alternateBounds" />
          </mxGeometry>
        </mxCell>
        <mxCell id="LadDfvhg25KDEvU-yFwc-114" value="TX_TYPE_SURR_ID" style="shape=partialRectangle;overflow=hidden;connectable=0;fillColor=none;top=0;left=0;bottom=0;right=0;align=left;spacingLeft=6;fontStyle=5;" vertex="1" parent="LadDfvhg25KDEvU-yFwc-112">
          <mxGeometry x="30" width="148.99997126354896" height="30" as="geometry">
            <mxRectangle width="148.99997126354896" height="30" as="alternateBounds" />
          </mxGeometry>
        </mxCell>
        <mxCell id="LadDfvhg25KDEvU-yFwc-115" value="BIGINT NOT NULL" style="shape=partialRectangle;overflow=hidden;connectable=0;fillColor=none;top=0;left=0;bottom=0;right=0;align=left;spacingLeft=6;fontStyle=5;" vertex="1" parent="LadDfvhg25KDEvU-yFwc-112">
          <mxGeometry x="178.99997126354896" width="126.00002873645104" height="30" as="geometry">
            <mxRectangle width="126.00002873645104" height="30" as="alternateBounds" />
          </mxGeometry>
        </mxCell>
        <mxCell id="LadDfvhg25KDEvU-yFwc-116" value="" style="shape=tableRow;horizontal=0;startSize=0;swimlaneHead=0;swimlaneBody=0;fillColor=none;collapsible=0;dropTarget=0;points=[[0,0.5],[1,0.5]];portConstraint=eastwest;top=0;left=0;right=0;bottom=0;" vertex="1" parent="LadDfvhg25KDEvU-yFwc-111">
          <mxGeometry y="60" width="305" height="27" as="geometry" />
        </mxCell>
        <mxCell id="LadDfvhg25KDEvU-yFwc-117" value="" style="shape=partialRectangle;connectable=0;fillColor=none;top=0;left=0;bottom=0;right=0;editable=1;overflow=hidden;" vertex="1" parent="LadDfvhg25KDEvU-yFwc-116">
          <mxGeometry width="30" height="27" as="geometry">
            <mxRectangle width="30" height="27" as="alternateBounds" />
          </mxGeometry>
        </mxCell>
        <mxCell id="LadDfvhg25KDEvU-yFwc-118" value="TX_TYPE" style="shape=partialRectangle;connectable=0;fillColor=none;top=0;left=0;bottom=0;right=0;align=left;spacingLeft=6;overflow=hidden;fontStyle=1" vertex="1" parent="LadDfvhg25KDEvU-yFwc-116">
          <mxGeometry x="30" width="148.99997126354896" height="27" as="geometry">
            <mxRectangle width="148.99997126354896" height="27" as="alternateBounds" />
          </mxGeometry>
        </mxCell>
        <mxCell id="LadDfvhg25KDEvU-yFwc-119" value="VARCHAR(100)" style="shape=partialRectangle;connectable=0;fillColor=none;top=0;left=0;bottom=0;right=0;align=left;spacingLeft=6;overflow=hidden;fontStyle=1" vertex="1" parent="LadDfvhg25KDEvU-yFwc-116">
          <mxGeometry x="178.99997126354896" width="126.00002873645104" height="27" as="geometry">
            <mxRectangle width="126.00002873645104" height="27" as="alternateBounds" />
          </mxGeometry>
        </mxCell>
        <mxCell id="LadDfvhg25KDEvU-yFwc-120" style="shape=partialRectangle;collapsible=0;dropTarget=0;pointerEvents=0;fillColor=none;points=[[0,0.5],[1,0.5]];portConstraint=eastwest;top=0;left=0;right=0;bottom=0;" vertex="1" parent="LadDfvhg25KDEvU-yFwc-111">
          <mxGeometry y="87" width="305" height="28" as="geometry" />
        </mxCell>
        <mxCell id="LadDfvhg25KDEvU-yFwc-121" style="shape=partialRectangle;overflow=hidden;connectable=0;fillColor=none;top=0;left=0;bottom=0;right=0;" vertex="1" parent="LadDfvhg25KDEvU-yFwc-120">
          <mxGeometry width="30" height="28" as="geometry">
            <mxRectangle width="30" height="28" as="alternateBounds" />
          </mxGeometry>
        </mxCell>
        <mxCell id="LadDfvhg25KDEvU-yFwc-122" value="TA_INSERT_DT" style="shape=partialRectangle;overflow=hidden;connectable=0;fillColor=none;top=0;left=0;bottom=0;right=0;align=left;spacingLeft=6;fontStyle=1" vertex="1" parent="LadDfvhg25KDEvU-yFwc-120">
          <mxGeometry x="30" width="148.99997126354896" height="28" as="geometry">
            <mxRectangle width="148.99997126354896" height="28" as="alternateBounds" />
          </mxGeometry>
        </mxCell>
        <mxCell id="LadDfvhg25KDEvU-yFwc-123" value="DATE" style="shape=partialRectangle;overflow=hidden;connectable=0;fillColor=none;top=0;left=0;bottom=0;right=0;align=left;spacingLeft=6;fontStyle=1" vertex="1" parent="LadDfvhg25KDEvU-yFwc-120">
          <mxGeometry x="178.99997126354896" width="126.00002873645104" height="28" as="geometry">
            <mxRectangle width="126.00002873645104" height="28" as="alternateBounds" />
          </mxGeometry>
        </mxCell>
        <mxCell id="LadDfvhg25KDEvU-yFwc-124" style="shape=partialRectangle;collapsible=0;dropTarget=0;pointerEvents=0;fillColor=none;points=[[0,0.5],[1,0.5]];portConstraint=eastwest;top=0;left=0;right=0;bottom=0;" vertex="1" parent="LadDfvhg25KDEvU-yFwc-111">
          <mxGeometry y="115" width="305" height="30" as="geometry" />
        </mxCell>
        <mxCell id="LadDfvhg25KDEvU-yFwc-125" style="shape=partialRectangle;overflow=hidden;connectable=0;fillColor=none;top=0;left=0;bottom=0;right=0;" vertex="1" parent="LadDfvhg25KDEvU-yFwc-124">
          <mxGeometry width="30" height="30" as="geometry">
            <mxRectangle width="30" height="30" as="alternateBounds" />
          </mxGeometry>
        </mxCell>
        <mxCell id="LadDfvhg25KDEvU-yFwc-126" value="TA_UPDATE_DT" style="shape=partialRectangle;overflow=hidden;connectable=0;fillColor=none;top=0;left=0;bottom=0;right=0;align=left;spacingLeft=6;fontStyle=1" vertex="1" parent="LadDfvhg25KDEvU-yFwc-124">
          <mxGeometry x="30" width="148.99997126354896" height="30" as="geometry">
            <mxRectangle width="148.99997126354896" height="30" as="alternateBounds" />
          </mxGeometry>
        </mxCell>
        <mxCell id="LadDfvhg25KDEvU-yFwc-127" value="DATE" style="shape=partialRectangle;overflow=hidden;connectable=0;fillColor=none;top=0;left=0;bottom=0;right=0;align=left;spacingLeft=6;fontStyle=1" vertex="1" parent="LadDfvhg25KDEvU-yFwc-124">
          <mxGeometry x="178.99997126354896" width="126.00002873645104" height="30" as="geometry">
            <mxRectangle width="126.00002873645104" height="30" as="alternateBounds" />
          </mxGeometry>
        </mxCell>
        <mxCell id="LadDfvhg25KDEvU-yFwc-128" style="shape=partialRectangle;collapsible=0;dropTarget=0;pointerEvents=0;fillColor=none;points=[[0,0.5],[1,0.5]];portConstraint=eastwest;top=0;left=0;right=0;bottom=0;" vertex="1" parent="LadDfvhg25KDEvU-yFwc-111">
          <mxGeometry y="145" width="305" height="30" as="geometry" />
        </mxCell>
        <mxCell id="LadDfvhg25KDEvU-yFwc-129" style="shape=partialRectangle;overflow=hidden;connectable=0;fillColor=none;top=0;left=0;bottom=0;right=0;" vertex="1" parent="LadDfvhg25KDEvU-yFwc-128">
          <mxGeometry width="30" height="30" as="geometry">
            <mxRectangle width="30" height="30" as="alternateBounds" />
          </mxGeometry>
        </mxCell>
        <mxCell id="LadDfvhg25KDEvU-yFwc-130" value="TX_TYPE_SRC_ID" style="shape=partialRectangle;overflow=hidden;connectable=0;fillColor=none;top=0;left=0;bottom=0;right=0;align=left;spacingLeft=6;fontStyle=1" vertex="1" parent="LadDfvhg25KDEvU-yFwc-128">
          <mxGeometry x="30" width="148.99997126354896" height="30" as="geometry">
            <mxRectangle width="148.99997126354896" height="30" as="alternateBounds" />
          </mxGeometry>
        </mxCell>
        <mxCell id="LadDfvhg25KDEvU-yFwc-131" value="VARCHAR" style="shape=partialRectangle;overflow=hidden;connectable=0;fillColor=none;top=0;left=0;bottom=0;right=0;align=left;spacingLeft=6;fontStyle=1" vertex="1" parent="LadDfvhg25KDEvU-yFwc-128">
          <mxGeometry x="178.99997126354896" width="126.00002873645104" height="30" as="geometry">
            <mxRectangle width="126.00002873645104" height="30" as="alternateBounds" />
          </mxGeometry>
        </mxCell>
        <mxCell id="LadDfvhg25KDEvU-yFwc-132" style="shape=partialRectangle;collapsible=0;dropTarget=0;pointerEvents=0;fillColor=none;points=[[0,0.5],[1,0.5]];portConstraint=eastwest;top=0;left=0;right=0;bottom=0;" vertex="1" parent="LadDfvhg25KDEvU-yFwc-111">
          <mxGeometry y="175" width="305" height="30" as="geometry" />
        </mxCell>
        <mxCell id="LadDfvhg25KDEvU-yFwc-133" style="shape=partialRectangle;overflow=hidden;connectable=0;fillColor=none;top=0;left=0;bottom=0;right=0;" vertex="1" parent="LadDfvhg25KDEvU-yFwc-132">
          <mxGeometry width="30" height="30" as="geometry">
            <mxRectangle width="30" height="30" as="alternateBounds" />
          </mxGeometry>
        </mxCell>
        <mxCell id="LadDfvhg25KDEvU-yFwc-134" value="SOURCE_SYSTEM" style="shape=partialRectangle;overflow=hidden;connectable=0;fillColor=none;top=0;left=0;bottom=0;right=0;align=left;spacingLeft=6;fontStyle=1" vertex="1" parent="LadDfvhg25KDEvU-yFwc-132">
          <mxGeometry x="30" width="148.99997126354896" height="30" as="geometry">
            <mxRectangle width="148.99997126354896" height="30" as="alternateBounds" />
          </mxGeometry>
        </mxCell>
        <mxCell id="LadDfvhg25KDEvU-yFwc-135" value="VARCHAR" style="shape=partialRectangle;overflow=hidden;connectable=0;fillColor=none;top=0;left=0;bottom=0;right=0;align=left;spacingLeft=6;fontStyle=1" vertex="1" parent="LadDfvhg25KDEvU-yFwc-132">
          <mxGeometry x="178.99997126354896" width="126.00002873645104" height="30" as="geometry">
            <mxRectangle width="126.00002873645104" height="30" as="alternateBounds" />
          </mxGeometry>
        </mxCell>
        <mxCell id="LadDfvhg25KDEvU-yFwc-136" style="shape=partialRectangle;collapsible=0;dropTarget=0;pointerEvents=0;fillColor=none;points=[[0,0.5],[1,0.5]];portConstraint=eastwest;top=0;left=0;right=0;bottom=0;" vertex="1" parent="LadDfvhg25KDEvU-yFwc-111">
          <mxGeometry y="205" width="305" height="30" as="geometry" />
        </mxCell>
        <mxCell id="LadDfvhg25KDEvU-yFwc-137" style="shape=partialRectangle;overflow=hidden;connectable=0;fillColor=none;top=0;left=0;bottom=0;right=0;" vertex="1" parent="LadDfvhg25KDEvU-yFwc-136">
          <mxGeometry width="30" height="30" as="geometry">
            <mxRectangle width="30" height="30" as="alternateBounds" />
          </mxGeometry>
        </mxCell>
        <mxCell id="LadDfvhg25KDEvU-yFwc-138" value="SOURCE_ENTITY" style="shape=partialRectangle;overflow=hidden;connectable=0;fillColor=none;top=0;left=0;bottom=0;right=0;align=left;spacingLeft=6;fontStyle=1" vertex="1" parent="LadDfvhg25KDEvU-yFwc-136">
          <mxGeometry x="30" width="148.99997126354896" height="30" as="geometry">
            <mxRectangle width="148.99997126354896" height="30" as="alternateBounds" />
          </mxGeometry>
        </mxCell>
        <mxCell id="LadDfvhg25KDEvU-yFwc-139" value="VARCHAR" style="shape=partialRectangle;overflow=hidden;connectable=0;fillColor=none;top=0;left=0;bottom=0;right=0;align=left;spacingLeft=6;fontStyle=1" vertex="1" parent="LadDfvhg25KDEvU-yFwc-136">
          <mxGeometry x="178.99997126354896" width="126.00002873645104" height="30" as="geometry">
            <mxRectangle width="126.00002873645104" height="30" as="alternateBounds" />
          </mxGeometry>
        </mxCell>
        <mxCell id="LadDfvhg25KDEvU-yFwc-142" value="" style="edgeStyle=entityRelationEdgeStyle;fontSize=12;html=1;endArrow=ERoneToMany;rounded=0;" edge="1" parent="1" source="LadDfvhg25KDEvU-yFwc-4" target="8j5CEaMQhX4lXEdDIJTh-387">
          <mxGeometry width="100" height="100" relative="1" as="geometry">
            <mxPoint x="936" y="169" as="sourcePoint" />
            <mxPoint x="915" y="397" as="targetPoint" />
            <Array as="points">
              <mxPoint x="915" y="702" />
            </Array>
          </mxGeometry>
        </mxCell>
        <mxCell id="LadDfvhg25KDEvU-yFwc-143" value="" style="edgeStyle=entityRelationEdgeStyle;fontSize=12;html=1;endArrow=ERoneToMany;rounded=0;" edge="1" parent="1" source="LadDfvhg25KDEvU-yFwc-53" target="8j5CEaMQhX4lXEdDIJTh-395">
          <mxGeometry width="100" height="100" relative="1" as="geometry">
            <mxPoint x="738" y="344" as="sourcePoint" />
            <mxPoint x="892" y="478" as="targetPoint" />
            <Array as="points">
              <mxPoint x="940" y="672" />
            </Array>
          </mxGeometry>
        </mxCell>
        <mxCell id="LadDfvhg25KDEvU-yFwc-144" value="" style="edgeStyle=entityRelationEdgeStyle;fontSize=12;html=1;endArrow=ERoneToMany;rounded=0;" edge="1" parent="1" source="LadDfvhg25KDEvU-yFwc-83" target="8j5CEaMQhX4lXEdDIJTh-399">
          <mxGeometry width="100" height="100" relative="1" as="geometry">
            <mxPoint x="890" y="444" as="sourcePoint" />
            <mxPoint x="953" y="541" as="targetPoint" />
            <Array as="points">
              <mxPoint x="1092" y="749" />
            </Array>
          </mxGeometry>
        </mxCell>
        <mxCell id="LadDfvhg25KDEvU-yFwc-145" value="" style="edgeStyle=entityRelationEdgeStyle;fontSize=12;html=1;endArrow=ERoneToMany;rounded=0;" edge="1" parent="1" source="LadDfvhg25KDEvU-yFwc-112" target="8j5CEaMQhX4lXEdDIJTh-407">
          <mxGeometry width="100" height="100" relative="1" as="geometry">
            <mxPoint x="527" y="394" as="sourcePoint" />
            <mxPoint x="590" y="514" as="targetPoint" />
            <Array as="points">
              <mxPoint x="729" y="722" />
            </Array>
          </mxGeometry>
        </mxCell>
      </root>
    </mxGraphModel>
  </diagram>
</mxfile>
